<?xml version="1.0" encoding="UTF-8"?>
<svg xmlns="http://www.w3.org/2000/svg" width="255" height="389">
   <defs>
      <style type="text/css">
    @namespace "http://www.w3.org/2000/svg";
    .line                 {fill: none; stroke: #330033; stroke-width: 1;}
    .bold-line            {stroke: #140014; shape-rendering: crispEdges; stroke-width: 2;}
    .thin-line            {stroke: #1F001F; shape-rendering: crispEdges}
    .filled               {fill: #330033; stroke: none;}
    text.terminal         {font-family: Verdana, Sans-serif;
                            font-size: 12px;
                            fill: #140014;
                            font-weight: bold;
                          }
    text.nonterminal      {font-family: Verdana, Sans-serif;
                            font-size: 12px;
                            fill: #19001A;
                            font-weight: normal;
                          }
    text.regexp           {font-family: Verdana, Sans-serif;
                            font-size: 12px;
                            fill: #1F001F;
                            font-weight: normal;
                          }
    rect, circle, polygon {fill: #330033; stroke: #330033;}
    rect.terminal         {fill: #FF4DFF; stroke: #330033; stroke-width: 1;}
    rect.nonterminal      {fill: #FF9EFF; stroke: #330033; stroke-width: 1;}
    rect.text             {fill: none; stroke: none;}
    polygon.regexp        {fill: #FFC7FF; stroke: #330033; stroke-width: 1;}
  </style>
   </defs>
   <polygon points="9 17 1 13 1 21"/>
   <polygon points="17 17 9 13 9 21"/>
   <a xmlns:xlink="http://www.w3.org/1999/xlink"
       xlink:href="#import_declaration"
       xlink:title="import_declaration">
      <rect x="51" y="3" width="140" height="32"/>
      <rect x="49" y="1" width="140" height="32" class="nonterminal"/>
      <text class="nonterminal" x="59" y="21">import_declaration</text>
   </a>
   <a xmlns:xlink="http://www.w3.org/1999/xlink"
       xlink:href="#module_declaration"
       xlink:title="module_declaration">
      <rect x="51" y="47" width="146" height="32"/>
      <rect x="49" y="45" width="146" height="32" class="nonterminal"/>
      <text class="nonterminal" x="59" y="65">module_declaration</text>
   </a>
   <a xmlns:xlink="http://www.w3.org/1999/xlink"
       xlink:href="#typealias_declaration"
       xlink:title="typealias_declaration">
      <rect x="51" y="91" width="156" height="32"/>
      <rect x="49" y="89" width="156" height="32" class="nonterminal"/>
      <text class="nonterminal" x="59" y="109">typealias_declaration</text>
   </a>
   <a xmlns:xlink="http://www.w3.org/1999/xlink"
       xlink:href="#const_declaration"
       xlink:title="const_declaration">
      <rect x="51" y="135" width="132" height="32"/>
      <rect x="49" y="133" width="132" height="32" class="nonterminal"/>
      <text class="nonterminal" x="59" y="153">const_declaration</text>
   </a>
   <a xmlns:xlink="http://www.w3.org/1999/xlink"
       xlink:href="#trait_declaration"
       xlink:title="trait_declaration">
      <rect x="51" y="179" width="124" height="32"/>
      <rect x="49" y="177" width="124" height="32" class="nonterminal"/>
      <text class="nonterminal" x="59" y="197">trait_declaration</text>
   </a>
   <a xmlns:xlink="http://www.w3.org/1999/xlink"
       xlink:href="#struct_declaration"
       xlink:title="struct_declaration">
      <rect x="51" y="223" width="134" height="32"/>
      <rect x="49" y="221" width="134" height="32" class="nonterminal"/>
      <text class="nonterminal" x="59" y="241">struct_declaration</text>
   </a>
   <a xmlns:xlink="http://www.w3.org/1999/xlink"
       xlink:href="#enum_declaration"
       xlink:title="enum_declaration">
      <rect x="51" y="267" width="134" height="32"/>
      <rect x="49" y="265" width="134" height="32" class="nonterminal"/>
      <text class="nonterminal" x="59" y="285">enum_declaration</text>
   </a>
   <a xmlns:xlink="http://www.w3.org/1999/xlink"
       xlink:href="#_impl_declaration"
       xlink:title="_impl_declaration">
      <rect x="51" y="311" width="132" height="32"/>
      <rect x="49" y="309" width="132" height="32" class="nonterminal"/>
      <text class="nonterminal" x="59" y="329">_impl_declaration</text>
   </a>
   <a xmlns:xlink="http://www.w3.org/1999/xlink"
       xlink:href="#function_declaration"
       xlink:title="function_declaration">
      <rect x="51" y="355" width="150" height="32"/>
      <rect x="49" y="353" width="150" height="32" class="nonterminal"/>
      <text class="nonterminal" x="59" y="373">function_declaration</text>
   </a>
   <path class="line"
          d="m17 17 h2 m20 0 h10 m140 0 h10 m0 0 h16 m-196 0 h20 m176 0 h20 m-216 0 q10 0 10 10 m196 0 q0 -10 10 -10 m-206 10 v24 m196 0 v-24 m-196 24 q0 10 10 10 m176 0 q10 0 10 -10 m-186 10 h10 m146 0 h10 m0 0 h10 m-186 -10 v20 m196 0 v-20 m-196 20 v24 m196 0 v-24 m-196 24 q0 10 10 10 m176 0 q10 0 10 -10 m-186 10 h10 m156 0 h10 m-186 -10 v20 m196 0 v-20 m-196 20 v24 m196 0 v-24 m-196 24 q0 10 10 10 m176 0 q10 0 10 -10 m-186 10 h10 m132 0 h10 m0 0 h24 m-186 -10 v20 m196 0 v-20 m-196 20 v24 m196 0 v-24 m-196 24 q0 10 10 10 m176 0 q10 0 10 -10 m-186 10 h10 m124 0 h10 m0 0 h32 m-186 -10 v20 m196 0 v-20 m-196 20 v24 m196 0 v-24 m-196 24 q0 10 10 10 m176 0 q10 0 10 -10 m-186 10 h10 m134 0 h10 m0 0 h22 m-186 -10 v20 m196 0 v-20 m-196 20 v24 m196 0 v-24 m-196 24 q0 10 10 10 m176 0 q10 0 10 -10 m-186 10 h10 m134 0 h10 m0 0 h22 m-186 -10 v20 m196 0 v-20 m-196 20 v24 m196 0 v-24 m-196 24 q0 10 10 10 m176 0 q10 0 10 -10 m-186 10 h10 m132 0 h10 m0 0 h24 m-186 -10 v20 m196 0 v-20 m-196 20 v24 m196 0 v-24 m-196 24 q0 10 10 10 m176 0 q10 0 10 -10 m-186 10 h10 m150 0 h10 m0 0 h6 m23 -352 h-3"/>
   <polygon points="245 17 253 13 253 21"/>
   <polygon points="245 17 237 13 237 21"/>
</svg>
