<?xml version="1.0" encoding="UTF-8"?>
<svg xmlns="http://www.w3.org/2000/svg" width="247" height="521">
   <defs>
      <style type="text/css">
    @namespace "http://www.w3.org/2000/svg";
    .line                 {fill: none; stroke: #330033; stroke-width: 1;}
    .bold-line            {stroke: #140014; shape-rendering: crispEdges; stroke-width: 2;}
    .thin-line            {stroke: #1F001F; shape-rendering: crispEdges}
    .filled               {fill: #330033; stroke: none;}
    text.terminal         {font-family: Verdana, Sans-serif;
                            font-size: 12px;
                            fill: #140014;
                            font-weight: bold;
                          }
    text.nonterminal      {font-family: Verdana, Sans-serif;
                            font-size: 12px;
                            fill: #19001A;
                            font-weight: normal;
                          }
    text.regexp           {font-family: Verdana, Sans-serif;
                            font-size: 12px;
                            fill: #1F001F;
                            font-weight: normal;
                          }
    rect, circle, polygon {fill: #330033; stroke: #330033;}
    rect.terminal         {fill: #FF4DFF; stroke: #330033; stroke-width: 1;}
    rect.nonterminal      {fill: #FF9EFF; stroke: #330033; stroke-width: 1;}
    rect.text             {fill: none; stroke: none;}
    polygon.regexp        {fill: #FFC7FF; stroke: #330033; stroke-width: 1;}
  </style>
   </defs>
   <polygon points="9 17 1 13 1 21"/>
   <polygon points="17 17 9 13 9 21"/>
   <a xmlns:xlink="http://www.w3.org/1999/xlink"
       xlink:href="#tuple_expressions"
       xlink:title="tuple_expressions">
      <rect x="51" y="3" width="136" height="32"/>
      <rect x="49" y="1" width="136" height="32" class="nonterminal"/>
      <text class="nonterminal" x="59" y="21">tuple_expressions</text>
   </a>
   <a xmlns:xlink="http://www.w3.org/1999/xlink"
       xlink:href="#block"
       xlink:title="block">
      <rect x="51" y="47" width="52" height="32"/>
      <rect x="49" y="45" width="52" height="32" class="nonterminal"/>
      <text class="nonterminal" x="59" y="65">block</text>
   </a>
   <a xmlns:xlink="http://www.w3.org/1999/xlink"
       xlink:href="#unary_expression"
       xlink:title="unary_expression">
      <rect x="51" y="91" width="134" height="32"/>
      <rect x="49" y="89" width="134" height="32" class="nonterminal"/>
      <text class="nonterminal" x="59" y="109">unary_expression</text>
   </a>
   <a xmlns:xlink="http://www.w3.org/1999/xlink"
       xlink:href="#binary_expression"
       xlink:title="binary_expression">
      <rect x="51" y="135" width="136" height="32"/>
      <rect x="49" y="133" width="136" height="32" class="nonterminal"/>
      <text class="nonterminal" x="59" y="153">binary_expression</text>
   </a>
   <a xmlns:xlink="http://www.w3.org/1999/xlink"
       xlink:href="#if_expression"
       xlink:title="if_expression">
      <rect x="51" y="179" width="104" height="32"/>
      <rect x="49" y="177" width="104" height="32" class="nonterminal"/>
      <text class="nonterminal" x="59" y="197">if_expression</text>
   </a>
   <a xmlns:xlink="http://www.w3.org/1999/xlink"
       xlink:href="#loop_expression"
       xlink:title="loop_expression">
      <rect x="51" y="223" width="124" height="32"/>
      <rect x="49" y="221" width="124" height="32" class="nonterminal"/>
      <text class="nonterminal" x="59" y="241">loop_expression</text>
   </a>
   <a xmlns:xlink="http://www.w3.org/1999/xlink"
       xlink:href="#match_expression"
       xlink:title="match_expression">
      <rect x="51" y="267" width="136" height="32"/>
      <rect x="49" y="265" width="136" height="32" class="nonterminal"/>
      <text class="nonterminal" x="59" y="285">match_expression</text>
   </a>
   <a xmlns:xlink="http://www.w3.org/1999/xlink"
       xlink:href="#selector_expression"
       xlink:title="selector_expression">
      <rect x="51" y="311" width="148" height="32"/>
      <rect x="49" y="309" width="148" height="32" class="nonterminal"/>
      <text class="nonterminal" x="59" y="329">selector_expression</text>
   </a>
   <a xmlns:xlink="http://www.w3.org/1999/xlink"
       xlink:href="#index_expression"
       xlink:title="index_expression">
      <rect x="51" y="355" width="132" height="32"/>
      <rect x="49" y="353" width="132" height="32" class="nonterminal"/>
      <text class="nonterminal" x="59" y="373">index_expression</text>
   </a>
   <a xmlns:xlink="http://www.w3.org/1999/xlink"
       xlink:href="#call_expression"
       xlink:title="call_expression">
      <rect x="51" y="399" width="118" height="32"/>
      <rect x="49" y="397" width="118" height="32" class="nonterminal"/>
      <text class="nonterminal" x="59" y="417">call_expression</text>
   </a>
   <a xmlns:xlink="http://www.w3.org/1999/xlink"
       xlink:href="#qualified_name"
       xlink:title="qualified_name">
      <rect x="51" y="443" width="118" height="32"/>
      <rect x="49" y="441" width="118" height="32" class="nonterminal"/>
      <text class="nonterminal" x="59" y="461">qualified_name</text>
   </a>
   <a xmlns:xlink="http://www.w3.org/1999/xlink"
       xlink:href="#_literal_expression"
       xlink:title="_literal_expression">
      <rect x="51" y="487" width="142" height="32"/>
      <rect x="49" y="485" width="142" height="32" class="nonterminal"/>
      <text class="nonterminal" x="59" y="505">_literal_expression</text>
   </a>
   <path class="line"
          d="m17 17 h2 m20 0 h10 m136 0 h10 m0 0 h12 m-188 0 h20 m168 0 h20 m-208 0 q10 0 10 10 m188 0 q0 -10 10 -10 m-198 10 v24 m188 0 v-24 m-188 24 q0 10 10 10 m168 0 q10 0 10 -10 m-178 10 h10 m52 0 h10 m0 0 h96 m-178 -10 v20 m188 0 v-20 m-188 20 v24 m188 0 v-24 m-188 24 q0 10 10 10 m168 0 q10 0 10 -10 m-178 10 h10 m134 0 h10 m0 0 h14 m-178 -10 v20 m188 0 v-20 m-188 20 v24 m188 0 v-24 m-188 24 q0 10 10 10 m168 0 q10 0 10 -10 m-178 10 h10 m136 0 h10 m0 0 h12 m-178 -10 v20 m188 0 v-20 m-188 20 v24 m188 0 v-24 m-188 24 q0 10 10 10 m168 0 q10 0 10 -10 m-178 10 h10 m104 0 h10 m0 0 h44 m-178 -10 v20 m188 0 v-20 m-188 20 v24 m188 0 v-24 m-188 24 q0 10 10 10 m168 0 q10 0 10 -10 m-178 10 h10 m124 0 h10 m0 0 h24 m-178 -10 v20 m188 0 v-20 m-188 20 v24 m188 0 v-24 m-188 24 q0 10 10 10 m168 0 q10 0 10 -10 m-178 10 h10 m136 0 h10 m0 0 h12 m-178 -10 v20 m188 0 v-20 m-188 20 v24 m188 0 v-24 m-188 24 q0 10 10 10 m168 0 q10 0 10 -10 m-178 10 h10 m148 0 h10 m-178 -10 v20 m188 0 v-20 m-188 20 v24 m188 0 v-24 m-188 24 q0 10 10 10 m168 0 q10 0 10 -10 m-178 10 h10 m132 0 h10 m0 0 h16 m-178 -10 v20 m188 0 v-20 m-188 20 v24 m188 0 v-24 m-188 24 q0 10 10 10 m168 0 q10 0 10 -10 m-178 10 h10 m118 0 h10 m0 0 h30 m-178 -10 v20 m188 0 v-20 m-188 20 v24 m188 0 v-24 m-188 24 q0 10 10 10 m168 0 q10 0 10 -10 m-178 10 h10 m118 0 h10 m0 0 h30 m-178 -10 v20 m188 0 v-20 m-188 20 v24 m188 0 v-24 m-188 24 q0 10 10 10 m168 0 q10 0 10 -10 m-178 10 h10 m142 0 h10 m0 0 h6 m23 -484 h-3"/>
   <polygon points="237 17 245 13 245 21"/>
   <polygon points="237 17 229 13 229 21"/>
</svg>
