<?xml version="1.0" encoding="UTF-8"?>
<svg xmlns="http://www.w3.org/2000/svg" width="167" height="213">
   <defs>
      <style type="text/css">
    @namespace "http://www.w3.org/2000/svg";
    .line                 {fill: none; stroke: #330033; stroke-width: 1;}
    .bold-line            {stroke: #140014; shape-rendering: crispEdges; stroke-width: 2;}
    .thin-line            {stroke: #1F001F; shape-rendering: crispEdges}
    .filled               {fill: #330033; stroke: none;}
    text.terminal         {font-family: Verdana, Sans-serif;
                            font-size: 12px;
                            fill: #140014;
                            font-weight: bold;
                          }
    text.nonterminal      {font-family: Verdana, Sans-serif;
                            font-size: 12px;
                            fill: #19001A;
                            font-weight: normal;
                          }
    text.regexp           {font-family: Verdana, Sans-serif;
                            font-size: 12px;
                            fill: #1F001F;
                            font-weight: normal;
                          }
    rect, circle, polygon {fill: #330033; stroke: #330033;}
    rect.terminal         {fill: #FF4DFF; stroke: #330033; stroke-width: 1;}
    rect.nonterminal      {fill: #FF9EFF; stroke: #330033; stroke-width: 1;}
    rect.text             {fill: none; stroke: none;}
    polygon.regexp        {fill: #FFC7FF; stroke: #330033; stroke-width: 1;}
  </style>
   </defs>
   <polygon points="9 17 1 13 1 21"/>
   <polygon points="17 17 9 13 9 21"/>
   <rect x="51" y="3" width="48" height="32" rx="10"/>
   <rect x="49"
          y="1"
          width="48"
          height="32"
          class="terminal"
          rx="10"/>
   <text class="terminal" x="59" y="21">true</text>
   <rect x="51" y="47" width="52" height="32" rx="10"/>
   <rect x="49"
          y="45"
          width="52"
          height="32"
          class="terminal"
          rx="10"/>
   <text class="terminal" x="59" y="65">false</text>
   <a xmlns:xlink="http://www.w3.org/1999/xlink"
       xlink:href="#number"
       xlink:title="number">
      <rect x="51" y="91" width="68" height="32"/>
      <rect x="49" y="89" width="68" height="32" class="nonterminal"/>
      <text class="nonterminal" x="59" y="109">number</text>
   </a>
   <a xmlns:xlink="http://www.w3.org/1999/xlink"
       xlink:href="#string"
       xlink:title="string">
      <rect x="51" y="135" width="56" height="32"/>
      <rect x="49" y="133" width="56" height="32" class="nonterminal"/>
      <text class="nonterminal" x="59" y="153">string</text>
   </a>
   <a xmlns:xlink="http://www.w3.org/1999/xlink"
       xlink:href="#unit"
       xlink:title="unit">
      <rect x="51" y="179" width="44" height="32"/>
      <rect x="49" y="177" width="44" height="32" class="nonterminal"/>
      <text class="nonterminal" x="59" y="197">unit</text>
   </a>
   <path class="line"
          d="m17 17 h2 m20 0 h10 m48 0 h10 m0 0 h20 m-108 0 h20 m88 0 h20 m-128 0 q10 0 10 10 m108 0 q0 -10 10 -10 m-118 10 v24 m108 0 v-24 m-108 24 q0 10 10 10 m88 0 q10 0 10 -10 m-98 10 h10 m52 0 h10 m0 0 h16 m-98 -10 v20 m108 0 v-20 m-108 20 v24 m108 0 v-24 m-108 24 q0 10 10 10 m88 0 q10 0 10 -10 m-98 10 h10 m68 0 h10 m-98 -10 v20 m108 0 v-20 m-108 20 v24 m108 0 v-24 m-108 24 q0 10 10 10 m88 0 q10 0 10 -10 m-98 10 h10 m56 0 h10 m0 0 h12 m-98 -10 v20 m108 0 v-20 m-108 20 v24 m108 0 v-24 m-108 24 q0 10 10 10 m88 0 q10 0 10 -10 m-98 10 h10 m44 0 h10 m0 0 h24 m23 -176 h-3"/>
   <polygon points="157 17 165 13 165 21"/>
   <polygon points="157 17 149 13 149 21"/>
</svg>
