<?xml version="1.0" encoding="UTF-8"?>
<svg xmlns="http://www.w3.org/2000/svg" width="329" height="97">
   <defs>
      <style type="text/css">
    @namespace "http://www.w3.org/2000/svg";
    .line                 {fill: none; stroke: #332900; stroke-width: 1;}
    .bold-line            {stroke: #141000; shape-rendering: crispEdges; stroke-width: 2;}
    .thin-line            {stroke: #1F1800; shape-rendering: crispEdges}
    .filled               {fill: #332900; stroke: none;}
    text.terminal         {font-family: Verdana, Sans-serif;
                            font-size: 12px;
                            fill: #141000;
                            font-weight: bold;
                          }
    text.nonterminal      {font-family: Verdana, Sans-serif;
                            font-size: 12px;
                            fill: #1A1400;
                            font-weight: normal;
                          }
    text.regexp           {font-family: Verdana, Sans-serif;
                            font-size: 12px;
                            fill: #1F1800;
                            font-weight: normal;
                          }
    rect, circle, polygon {fill: #332900; stroke: #332900;}
    rect.terminal         {fill: #FFDB4D; stroke: #332900; stroke-width: 1;}
    rect.nonterminal      {fill: #FFEC9E; stroke: #332900; stroke-width: 1;}
    rect.text             {fill: none; stroke: none;}
    polygon.regexp        {fill: #FFF4C7; stroke: #332900; stroke-width: 1;}
  </style>
   </defs>
   <polygon points="9 33 1 29 1 37"/>
   <polygon points="17 33 9 29 9 37"/>
   <rect x="31" y="19" width="28" height="32" rx="10"/>
   <rect x="29"
          y="17"
          width="28"
          height="32"
          class="terminal"
          rx="10"/>
   <text class="terminal" x="39" y="37">_</text>
   <polygon points="79 35 86 19 132 19 139 35 132 51 86 51"/>
   <polygon points="77 33 84 17 130 17 137 33 130 49 84 49" class="regexp"/>
   <text class="regexp" x="92" y="37">[a-z]</text>
   <polygon points="199 35 206 19 252 19 259 35 252 51 206 51"/>
   <polygon points="197 33 204 17 250 17 257 33 250 49 204 49" class="regexp"/>
   <text class="regexp" x="212" y="37">[a-z]</text>
   <polygon points="199 79 206 63 254 63 261 79 254 95 206 95"/>
   <polygon points="197 77 204 61 252 61 259 77 252 93 204 93" class="regexp"/>
   <text class="regexp" x="212" y="81">[0-9]</text>
   <path class="line"
          d="m17 33 h2 m0 0 h10 m28 0 h10 m0 0 h10 m60 0 h10 m40 0 h10 m60 0 h10 m0 0 h2 m-102 0 h20 m82 0 h20 m-122 0 q10 0 10 10 m102 0 q0 -10 10 -10 m-112 10 v24 m102 0 v-24 m-102 24 q0 10 10 10 m82 0 q10 0 10 -10 m-92 10 h10 m62 0 h10 m-122 -44 l20 0 m-1 0 q-9 0 -9 -10 l0 -12 q0 -10 10 -10 m122 32 l20 0 m-20 0 q10 0 10 -10 l0 -12 q0 -10 -10 -10 m-122 0 h10 m0 0 h112 m23 32 h-3"/>
   <polygon points="319 33 327 29 327 37"/>
   <polygon points="319 33 311 29 311 37"/>
</svg>
