<?xml version="1.0" encoding="UTF-8"?>
<svg xmlns="http://www.w3.org/2000/svg" width="209" height="169">
   <defs>
      <style type="text/css">
    @namespace "http://www.w3.org/2000/svg";
    .line                 {fill: none; stroke: #330033; stroke-width: 1;}
    .bold-line            {stroke: #140014; shape-rendering: crispEdges; stroke-width: 2;}
    .thin-line            {stroke: #1F001F; shape-rendering: crispEdges}
    .filled               {fill: #330033; stroke: none;}
    text.terminal         {font-family: Verdana, Sans-serif;
                            font-size: 12px;
                            fill: #140014;
                            font-weight: bold;
                          }
    text.nonterminal      {font-family: Verdana, Sans-serif;
                            font-size: 12px;
                            fill: #19001A;
                            font-weight: normal;
                          }
    text.regexp           {font-family: Verdana, Sans-serif;
                            font-size: 12px;
                            fill: #1F001F;
                            font-weight: normal;
                          }
    rect, circle, polygon {fill: #330033; stroke: #330033;}
    rect.terminal         {fill: #FF4DFF; stroke: #330033; stroke-width: 1;}
    rect.nonterminal      {fill: #FF9EFF; stroke: #330033; stroke-width: 1;}
    rect.text             {fill: none; stroke: none;}
    polygon.regexp        {fill: #FFC7FF; stroke: #330033; stroke-width: 1;}
  </style>
   </defs>
   <polygon points="9 17 1 13 1 21"/>
   <polygon points="17 17 9 13 9 21"/>
   <a xmlns:xlink="http://www.w3.org/1999/xlink"
       xlink:href="#_pattern_var"
       xlink:title="_pattern_var">
      <rect x="51" y="3" width="102" height="32"/>
      <rect x="49" y="1" width="102" height="32" class="nonterminal"/>
      <text class="nonterminal" x="59" y="21">_pattern_var</text>
   </a>
   <a xmlns:xlink="http://www.w3.org/1999/xlink"
       xlink:href="#pattern_struct"
       xlink:title="pattern_struct">
      <rect x="51" y="47" width="110" height="32"/>
      <rect x="49" y="45" width="110" height="32" class="nonterminal"/>
      <text class="nonterminal" x="59" y="65">pattern_struct</text>
   </a>
   <a xmlns:xlink="http://www.w3.org/1999/xlink"
       xlink:href="#pattern_enum"
       xlink:title="pattern_enum">
      <rect x="51" y="91" width="110" height="32"/>
      <rect x="49" y="89" width="110" height="32" class="nonterminal"/>
      <text class="nonterminal" x="59" y="109">pattern_enum</text>
   </a>
   <a xmlns:xlink="http://www.w3.org/1999/xlink"
       xlink:href="#pattern_tuple"
       xlink:title="pattern_tuple">
      <rect x="51" y="135" width="106" height="32"/>
      <rect x="49" y="133" width="106" height="32" class="nonterminal"/>
      <text class="nonterminal" x="59" y="153">pattern_tuple</text>
   </a>
   <path class="line"
          d="m17 17 h2 m20 0 h10 m102 0 h10 m0 0 h8 m-150 0 h20 m130 0 h20 m-170 0 q10 0 10 10 m150 0 q0 -10 10 -10 m-160 10 v24 m150 0 v-24 m-150 24 q0 10 10 10 m130 0 q10 0 10 -10 m-140 10 h10 m110 0 h10 m-140 -10 v20 m150 0 v-20 m-150 20 v24 m150 0 v-24 m-150 24 q0 10 10 10 m130 0 q10 0 10 -10 m-140 10 h10 m110 0 h10 m-140 -10 v20 m150 0 v-20 m-150 20 v24 m150 0 v-24 m-150 24 q0 10 10 10 m130 0 q10 0 10 -10 m-140 10 h10 m106 0 h10 m0 0 h4 m23 -132 h-3"/>
   <polygon points="199 17 207 13 207 21"/>
   <polygon points="199 17 191 13 191 21"/>
</svg>
