<?xml version="1.0" encoding="UTF-8"?>
<svg xmlns="http://www.w3.org/2000/svg" width="397" height="159">
   <defs>
      <style type="text/css">
    @namespace "http://www.w3.org/2000/svg";
    .line                 {fill: none; stroke: #332900; stroke-width: 1;}
    .bold-line            {stroke: #141000; shape-rendering: crispEdges; stroke-width: 2;}
    .thin-line            {stroke: #1F1800; shape-rendering: crispEdges}
    .filled               {fill: #332900; stroke: none;}
    text.terminal         {font-family: Verdana, Sans-serif;
                            font-size: 12px;
                            fill: #141000;
                            font-weight: bold;
                          }
    text.nonterminal      {font-family: Verdana, Sans-serif;
                            font-size: 12px;
                            fill: #1A1400;
                            font-weight: normal;
                          }
    text.regexp           {font-family: Verdana, Sans-serif;
                            font-size: 12px;
                            fill: #1F1800;
                            font-weight: normal;
                          }
    rect, circle, polygon {fill: #332900; stroke: #332900;}
    rect.terminal         {fill: #FFDB4D; stroke: #332900; stroke-width: 1;}
    rect.nonterminal      {fill: #FFEC9E; stroke: #332900; stroke-width: 1;}
    rect.text             {fill: none; stroke: none;}
    polygon.regexp        {fill: #FFF4C7; stroke: #332900; stroke-width: 1;}
  </style>
   </defs>
   <polygon points="9 51 1 47 1 55"/>
   <polygon points="17 51 9 47 9 55"/>
   <a xmlns:xlink="http://www.w3.org/1999/xlink"
       xlink:href="#attribute"
       xlink:title="attribute">
      <rect x="51" y="3" width="74" height="32"/>
      <rect x="49" y="1" width="74" height="32" class="nonterminal"/>
      <text class="nonterminal" x="59" y="21">attribute</text>
   </a>
   <a xmlns:xlink="http://www.w3.org/1999/xlink"
       xlink:href="#name"
       xlink:title="name">
      <rect x="185" y="37" width="56" height="32"/>
      <rect x="183" y="35" width="56" height="32" class="nonterminal"/>
      <text class="nonterminal" x="193" y="55">name</text>
   </a>
   <a xmlns:xlink="http://www.w3.org/1999/xlink"
       xlink:href="#type_parameter_const"
       xlink:title="type_parameter_const">
      <rect x="185" y="81" width="164" height="32"/>
      <rect x="183" y="79" width="164" height="32" class="nonterminal"/>
      <text class="nonterminal" x="193" y="99">type_parameter_const</text>
   </a>
   <a xmlns:xlink="http://www.w3.org/1999/xlink"
       xlink:href="#type_parameter_impl"
       xlink:title="type_parameter_impl">
      <rect x="185" y="125" width="156" height="32"/>
      <rect x="183" y="123" width="156" height="32" class="nonterminal"/>
      <text class="nonterminal" x="193" y="143">type_parameter_impl</text>
   </a>
   <path class="line"
          d="m17 51 h2 m20 0 h10 m0 0 h84 m-114 0 l20 0 m-1 0 q-9 0 -9 -10 l0 -14 q0 -10 10 -10 m94 34 l20 0 m-20 0 q10 0 10 -10 l0 -14 q0 -10 -10 -10 m-94 0 h10 m74 0 h10 m40 34 h10 m56 0 h10 m0 0 h108 m-204 0 h20 m184 0 h20 m-224 0 q10 0 10 10 m204 0 q0 -10 10 -10 m-214 10 v24 m204 0 v-24 m-204 24 q0 10 10 10 m184 0 q10 0 10 -10 m-194 10 h10 m164 0 h10 m-194 -10 v20 m204 0 v-20 m-204 20 v24 m204 0 v-24 m-204 24 q0 10 10 10 m184 0 q10 0 10 -10 m-194 10 h10 m156 0 h10 m0 0 h8 m23 -88 h-3"/>
   <polygon points="387 51 395 47 395 55"/>
   <polygon points="387 51 379 47 379 55"/>
</svg>
