<?xml version="1.0" encoding="UTF-8"?>
<svg xmlns="http://www.w3.org/2000/svg" width="499" height="85">
   <defs>
      <style type="text/css">
    @namespace "http://www.w3.org/2000/svg";
    .line                 {fill: none; stroke: #332900; stroke-width: 1;}
    .bold-line            {stroke: #141000; shape-rendering: crispEdges; stroke-width: 2;}
    .thin-line            {stroke: #1F1800; shape-rendering: crispEdges}
    .filled               {fill: #332900; stroke: none;}
    text.terminal         {font-family: Verdana, Sans-serif;
                            font-size: 12px;
                            fill: #141000;
                            font-weight: bold;
                          }
    text.nonterminal      {font-family: Verdana, Sans-serif;
                            font-size: 12px;
                            fill: #1A1400;
                            font-weight: normal;
                          }
    text.regexp           {font-family: Verdana, Sans-serif;
                            font-size: 12px;
                            fill: #1F1800;
                            font-weight: normal;
                          }
    rect, circle, polygon {fill: #332900; stroke: #332900;}
    rect.terminal         {fill: #FFDB4D; stroke: #332900; stroke-width: 1;}
    rect.nonterminal      {fill: #FFEC9E; stroke: #332900; stroke-width: 1;}
    rect.text             {fill: none; stroke: none;}
    polygon.regexp        {fill: #FFF4C7; stroke: #332900; stroke-width: 1;}
  </style>
   </defs>
   <polygon points="9 33 1 29 1 37"/>
   <polygon points="17 33 9 29 9 37"/>
   <rect x="31" y="19" width="26" height="32" rx="10"/>
   <rect x="29"
          y="17"
          width="26"
          height="32"
          class="terminal"
          rx="10"/>
   <text class="terminal" x="39" y="37">(</text>
   <a xmlns:xlink="http://www.w3.org/1999/xlink"
       xlink:href="#argument"
       xlink:title="argument">
      <rect x="117" y="19" width="82" height="32"/>
      <rect x="115" y="17" width="82" height="32" class="nonterminal"/>
      <text class="nonterminal" x="125" y="37">argument</text>
   </a>
   <rect x="219" y="19" width="24" height="32" rx="10"/>
   <rect x="217"
          y="17"
          width="24"
          height="32"
          class="terminal"
          rx="10"/>
   <text class="terminal" x="227" y="37">,</text>
   <a xmlns:xlink="http://www.w3.org/1999/xlink"
       xlink:href="#argument"
       xlink:title="argument">
      <rect x="323" y="51" width="82" height="32"/>
      <rect x="321" y="49" width="82" height="32" class="nonterminal"/>
      <text class="nonterminal" x="331" y="69">argument</text>
   </a>
   <rect x="445" y="19" width="26" height="32" rx="10"/>
   <rect x="443"
          y="17"
          width="26"
          height="32"
          class="terminal"
          rx="10"/>
   <text class="terminal" x="453" y="37">)</text>
   <path class="line"
          d="m17 33 h2 m0 0 h10 m26 0 h10 m40 0 h10 m82 0 h10 m0 0 h10 m24 0 h10 m-166 0 l20 0 m-1 0 q-9 0 -9 -10 l0 -12 q0 -10 10 -10 m146 32 l20 0 m-20 0 q10 0 10 -10 l0 -12 q0 -10 -10 -10 m-146 0 h10 m0 0 h136 m-186 32 h20 m186 0 h20 m-226 0 q10 0 10 10 m206 0 q0 -10 10 -10 m-216 10 v14 m206 0 v-14 m-206 14 q0 10 10 10 m186 0 q10 0 10 -10 m-196 10 h10 m0 0 h176 m40 -34 h10 m0 0 h92 m-122 0 h20 m102 0 h20 m-142 0 q10 0 10 10 m122 0 q0 -10 10 -10 m-132 10 v12 m122 0 v-12 m-122 12 q0 10 10 10 m102 0 q10 0 10 -10 m-112 10 h10 m82 0 h10 m20 -32 h10 m26 0 h10 m3 0 h-3"/>
   <polygon points="489 33 497 29 497 37"/>
   <polygon points="489 33 481 29 481 37"/>
</svg>
