<?xml version="1.0" encoding="UTF-8"?>
<svg xmlns="http://www.w3.org/2000/svg" width="411" height="169">
   <defs>
      <style type="text/css">
    @namespace "http://www.w3.org/2000/svg";
    .line                 {fill: none; stroke: #330033; stroke-width: 1;}
    .bold-line            {stroke: #140014; shape-rendering: crispEdges; stroke-width: 2;}
    .thin-line            {stroke: #1F001F; shape-rendering: crispEdges}
    .filled               {fill: #330033; stroke: none;}
    text.terminal         {font-family: Verdana, Sans-serif;
                            font-size: 12px;
                            fill: #140014;
                            font-weight: bold;
                          }
    text.nonterminal      {font-family: Verdana, Sans-serif;
                            font-size: 12px;
                            fill: #19001A;
                            font-weight: normal;
                          }
    text.regexp           {font-family: Verdana, Sans-serif;
                            font-size: 12px;
                            fill: #1F001F;
                            font-weight: normal;
                          }
    rect, circle, polygon {fill: #330033; stroke: #330033;}
    rect.terminal         {fill: #FF4DFF; stroke: #330033; stroke-width: 1;}
    rect.nonterminal      {fill: #FF9EFF; stroke: #330033; stroke-width: 1;}
    rect.text             {fill: none; stroke: none;}
    polygon.regexp        {fill: #FFC7FF; stroke: #330033; stroke-width: 1;}
  </style>
   </defs>
   <polygon points="9 17 1 13 1 21"/>
   <polygon points="17 17 9 13 9 21"/>
   <a xmlns:xlink="http://www.w3.org/1999/xlink"
       xlink:href="#name"
       xlink:title="name">
      <rect x="51" y="3" width="56" height="32"/>
      <rect x="49" y="1" width="56" height="32" class="nonterminal"/>
      <text class="nonterminal" x="59" y="21">name</text>
   </a>
   <a xmlns:xlink="http://www.w3.org/1999/xlink"
       xlink:href="#_literal_expression"
       xlink:title="_literal_expression">
      <rect x="51" y="47" width="142" height="32"/>
      <rect x="49" y="45" width="142" height="32" class="nonterminal"/>
      <text class="nonterminal" x="59" y="65">_literal_expression</text>
   </a>
   <a xmlns:xlink="http://www.w3.org/1999/xlink"
       xlink:href="#path"
       xlink:title="path">
      <rect x="51" y="91" width="48" height="32"/>
      <rect x="49" y="89" width="48" height="32" class="nonterminal"/>
      <text class="nonterminal" x="59" y="109">path</text>
   </a>
   <rect x="119" y="91" width="24" height="32" rx="10"/>
   <rect x="117"
          y="89"
          width="24"
          height="32"
          class="terminal"
          rx="10"/>
   <text class="terminal" x="127" y="109">:</text>
   <a xmlns:xlink="http://www.w3.org/1999/xlink"
       xlink:href="#_literal_expression"
       xlink:title="_literal_expression">
      <rect x="183" y="91" width="142" height="32"/>
      <rect x="181" y="89" width="142" height="32" class="nonterminal"/>
      <text class="nonterminal" x="191" y="109">_literal_expression</text>
   </a>
   <a xmlns:xlink="http://www.w3.org/1999/xlink"
       xlink:href="#_attribute_arguments"
       xlink:title="_attribute_arguments">
      <rect x="183" y="135" width="160" height="32"/>
      <rect x="181" y="133" width="160" height="32" class="nonterminal"/>
      <text class="nonterminal" x="191" y="153">_attribute_arguments</text>
   </a>
   <path class="line"
          d="m17 17 h2 m20 0 h10 m56 0 h10 m0 0 h256 m-352 0 h20 m332 0 h20 m-372 0 q10 0 10 10 m352 0 q0 -10 10 -10 m-362 10 v24 m352 0 v-24 m-352 24 q0 10 10 10 m332 0 q10 0 10 -10 m-342 10 h10 m142 0 h10 m0 0 h170 m-342 -10 v20 m352 0 v-20 m-352 20 v24 m352 0 v-24 m-352 24 q0 10 10 10 m332 0 q10 0 10 -10 m-342 10 h10 m48 0 h10 m0 0 h10 m24 0 h10 m20 0 h10 m142 0 h10 m0 0 h18 m-200 0 h20 m180 0 h20 m-220 0 q10 0 10 10 m200 0 q0 -10 10 -10 m-210 10 v24 m200 0 v-24 m-200 24 q0 10 10 10 m180 0 q10 0 10 -10 m-190 10 h10 m160 0 h10 m43 -132 h-3"/>
   <polygon points="401 17 409 13 409 21"/>
   <polygon points="401 17 393 13 393 21"/>
</svg>
