<?xml version="1.0" encoding="UTF-8"?>
<svg xmlns="http://www.w3.org/2000/svg" width="235" height="71">
   <defs>
      <style type="text/css">
    @namespace "http://www.w3.org/2000/svg";
    .line                 {fill: none; stroke: #330033; stroke-width: 1;}
    .bold-line            {stroke: #140014; shape-rendering: crispEdges; stroke-width: 2;}
    .thin-line            {stroke: #1F001F; shape-rendering: crispEdges}
    .filled               {fill: #330033; stroke: none;}
    text.terminal         {font-family: Verdana, Sans-serif;
                            font-size: 12px;
                            fill: #140014;
                            font-weight: bold;
                          }
    text.nonterminal      {font-family: Verdana, Sans-serif;
                            font-size: 12px;
                            fill: #19001A;
                            font-weight: normal;
                          }
    text.regexp           {font-family: Verdana, Sans-serif;
                            font-size: 12px;
                            fill: #1F001F;
                            font-weight: normal;
                          }
    rect, circle, polygon {fill: #330033; stroke: #330033;}
    rect.terminal         {fill: #FF4DFF; stroke: #330033; stroke-width: 1;}
    rect.nonterminal      {fill: #FF9EFF; stroke: #330033; stroke-width: 1;}
    rect.text             {fill: none; stroke: none;}
    polygon.regexp        {fill: #FFC7FF; stroke: #330033; stroke-width: 1;}
  </style>
   </defs>
   <polygon points="9 51 1 47 1 55"/>
   <polygon points="17 51 9 47 9 55"/>
   <rect x="31" y="37" width="36" height="32" rx="10"/>
   <rect x="29"
          y="35"
          width="36"
          height="32"
          class="terminal"
          rx="10"/>
   <text class="terminal" x="39" y="55">//</text>
   <rect x="107" y="3" width="24" height="32" rx="10"/>
   <rect x="105"
          y="1"
          width="24"
          height="32"
          class="terminal"
          rx="10"/>
   <text class="terminal" x="115" y="21">.</text>
   <rect x="171" y="37" width="36" height="32" rx="10"/>
   <rect x="169"
          y="35"
          width="36"
          height="32"
          class="terminal"
          rx="10"/>
   <text class="terminal" x="179" y="55">\n</text>
   <path class="line"
          d="m17 51 h2 m0 0 h10 m36 0 h10 m20 0 h10 m0 0 h34 m-64 0 l20 0 m-1 0 q-9 0 -9 -10 l0 -14 q0 -10 10 -10 m44 34 l20 0 m-20 0 q10 0 10 -10 l0 -14 q0 -10 -10 -10 m-44 0 h10 m24 0 h10 m20 34 h10 m36 0 h10 m3 0 h-3"/>
   <polygon points="225 51 233 47 233 55"/>
   <polygon points="225 51 217 47 217 55"/>
</svg>
