<?xml version="1.0" encoding="UTF-8"?>
<svg xmlns="http://www.w3.org/2000/svg" width="257" height="97">
   <defs>
      <style type="text/css">
    @namespace "http://www.w3.org/2000/svg";
    .line                 {fill: none; stroke: #330033; stroke-width: 1;}
    .bold-line            {stroke: #140014; shape-rendering: crispEdges; stroke-width: 2;}
    .thin-line            {stroke: #1F001F; shape-rendering: crispEdges}
    .filled               {fill: #330033; stroke: none;}
    text.terminal         {font-family: Verdana, Sans-serif;
                            font-size: 12px;
                            fill: #140014;
                            font-weight: bold;
                          }
    text.nonterminal      {font-family: Verdana, Sans-serif;
                            font-size: 12px;
                            fill: #19001A;
                            font-weight: normal;
                          }
    text.regexp           {font-family: Verdana, Sans-serif;
                            font-size: 12px;
                            fill: #1F001F;
                            font-weight: normal;
                          }
    rect, circle, polygon {fill: #330033; stroke: #330033;}
    rect.terminal         {fill: #FF4DFF; stroke: #330033; stroke-width: 1;}
    rect.nonterminal      {fill: #FF9EFF; stroke: #330033; stroke-width: 1;}
    rect.text             {fill: none; stroke: none;}
    polygon.regexp        {fill: #FFC7FF; stroke: #330033; stroke-width: 1;}
  </style>
   </defs>
   <polygon points="9 33 1 29 1 37"/>
   <polygon points="17 33 9 29 9 37"/>
   <rect x="31" y="19" width="36" height="32" rx="10"/>
   <rect x="29"
          y="17"
          width="36"
          height="32"
          class="terminal"
          rx="10"/>
   <text class="terminal" x="39" y="37">0x</text>
   <polygon points="127 35 134 19 182 19 189 35 182 51 134 51"/>
   <polygon points="125 33 132 17 180 17 187 33 180 49 132 49" class="regexp"/>
   <text class="regexp" x="140" y="37">[0-9]</text>
   <polygon points="127 79 134 63 178 63 185 79 178 95 134 95"/>
   <polygon points="125 77 132 61 176 61 183 77 176 93 132 93" class="regexp"/>
   <text class="regexp" x="140" y="81">[a-f]</text>
   <path class="line"
          d="m17 33 h2 m0 0 h10 m36 0 h10 m40 0 h10 m62 0 h10 m-102 0 h20 m82 0 h20 m-122 0 q10 0 10 10 m102 0 q0 -10 10 -10 m-112 10 v24 m102 0 v-24 m-102 24 q0 10 10 10 m82 0 q10 0 10 -10 m-92 10 h10 m58 0 h10 m0 0 h4 m-122 -44 l20 0 m-1 0 q-9 0 -9 -10 l0 -12 q0 -10 10 -10 m122 32 l20 0 m-20 0 q10 0 10 -10 l0 -12 q0 -10 -10 -10 m-122 0 h10 m0 0 h112 m23 32 h-3"/>
   <polygon points="247 33 255 29 255 37"/>
   <polygon points="247 33 239 29 239 37"/>
</svg>
