<?xml version="1.0" encoding="UTF-8"?>
<svg xmlns="http://www.w3.org/2000/svg" width="543" height="113">
   <defs>
      <style type="text/css">
    @namespace "http://www.w3.org/2000/svg";
    .line                 {fill: none; stroke: #330033; stroke-width: 1;}
    .bold-line            {stroke: #140014; shape-rendering: crispEdges; stroke-width: 2;}
    .thin-line            {stroke: #1F001F; shape-rendering: crispEdges}
    .filled               {fill: #330033; stroke: none;}
    text.terminal         {font-family: Verdana, Sans-serif;
                            font-size: 12px;
                            fill: #140014;
                            font-weight: bold;
                          }
    text.nonterminal      {font-family: Verdana, Sans-serif;
                            font-size: 12px;
                            fill: #19001A;
                            font-weight: normal;
                          }
    text.regexp           {font-family: Verdana, Sans-serif;
                            font-size: 12px;
                            fill: #1F001F;
                            font-weight: normal;
                          }
    rect, circle, polygon {fill: #330033; stroke: #330033;}
    rect.terminal         {fill: #FF4DFF; stroke: #330033; stroke-width: 1;}
    rect.nonterminal      {fill: #FF9EFF; stroke: #330033; stroke-width: 1;}
    rect.text             {fill: none; stroke: none;}
    polygon.regexp        {fill: #FFC7FF; stroke: #330033; stroke-width: 1;}
  </style>
   </defs>
   <polygon points="9 61 1 57 1 65"/>
   <polygon points="17 61 9 57 9 65"/>
   <rect x="51" y="47" width="28" height="32" rx="10"/>
   <rect x="49"
          y="45"
          width="28"
          height="32"
          class="terminal"
          rx="10"/>
   <text class="terminal" x="59" y="65">if</text>
   <a xmlns:xlink="http://www.w3.org/1999/xlink"
       xlink:href="#_simple_expression"
       xlink:title="_simple_expression">
      <rect x="99" y="47" width="146" height="32"/>
      <rect x="97" y="45" width="146" height="32" class="nonterminal"/>
      <text class="nonterminal" x="107" y="65">_simple_expression</text>
   </a>
   <a xmlns:xlink="http://www.w3.org/1999/xlink"
       xlink:href="#block"
       xlink:title="block">
      <rect x="265" y="47" width="52" height="32"/>
      <rect x="263" y="45" width="52" height="32" class="nonterminal"/>
      <text class="nonterminal" x="273" y="65">block</text>
   </a>
   <rect x="51" y="3" width="46" height="32" rx="10"/>
   <rect x="49"
          y="1"
          width="46"
          height="32"
          class="terminal"
          rx="10"/>
   <text class="terminal" x="59" y="21">else</text>
   <rect x="377" y="79" width="46" height="32" rx="10"/>
   <rect x="375"
          y="77"
          width="46"
          height="32"
          class="terminal"
          rx="10"/>
   <text class="terminal" x="385" y="97">else</text>
   <a xmlns:xlink="http://www.w3.org/1999/xlink"
       xlink:href="#block"
       xlink:title="block">
      <rect x="443" y="79" width="52" height="32"/>
      <rect x="441" y="77" width="52" height="32" class="nonterminal"/>
      <text class="nonterminal" x="451" y="97">block</text>
   </a>
   <path class="line"
          d="m17 61 h2 m20 0 h10 m28 0 h10 m0 0 h10 m146 0 h10 m0 0 h10 m52 0 h10 m-306 0 l20 0 m-1 0 q-9 0 -9 -10 l0 -24 q0 -10 10 -10 m286 44 l20 0 m-20 0 q10 0 10 -10 l0 -24 q0 -10 -10 -10 m-286 0 h10 m46 0 h10 m0 0 h220 m40 44 h10 m0 0 h128 m-158 0 h20 m138 0 h20 m-178 0 q10 0 10 10 m158 0 q0 -10 10 -10 m-168 10 v12 m158 0 v-12 m-158 12 q0 10 10 10 m138 0 q10 0 10 -10 m-148 10 h10 m46 0 h10 m0 0 h10 m52 0 h10 m23 -32 h-3"/>
   <polygon points="533 61 541 57 541 65"/>
   <polygon points="533 61 525 57 525 65"/>
</svg>
