<?xml version="1.0" encoding="UTF-8"?>
<svg xmlns="http://www.w3.org/2000/svg" width="801" height="103">
   <defs>
      <style type="text/css">
    @namespace "http://www.w3.org/2000/svg";
    .line                 {fill: none; stroke: #330033; stroke-width: 1;}
    .bold-line            {stroke: #140014; shape-rendering: crispEdges; stroke-width: 2;}
    .thin-line            {stroke: #1F001F; shape-rendering: crispEdges}
    .filled               {fill: #330033; stroke: none;}
    text.terminal         {font-family: Verdana, Sans-serif;
                            font-size: 12px;
                            fill: #140014;
                            font-weight: bold;
                          }
    text.nonterminal      {font-family: Verdana, Sans-serif;
                            font-size: 12px;
                            fill: #19001A;
                            font-weight: normal;
                          }
    text.regexp           {font-family: Verdana, Sans-serif;
                            font-size: 12px;
                            fill: #1F001F;
                            font-weight: normal;
                          }
    rect, circle, polygon {fill: #330033; stroke: #330033;}
    rect.terminal         {fill: #FF4DFF; stroke: #330033; stroke-width: 1;}
    rect.nonterminal      {fill: #FF9EFF; stroke: #330033; stroke-width: 1;}
    rect.text             {fill: none; stroke: none;}
    polygon.regexp        {fill: #FFC7FF; stroke: #330033; stroke-width: 1;}
  </style>
   </defs>
   <polygon points="9 51 1 47 1 55"/>
   <polygon points="17 51 9 47 9 55"/>
   <a xmlns:xlink="http://www.w3.org/1999/xlink"
       xlink:href="#attribute"
       xlink:title="attribute">
      <rect x="51" y="3" width="74" height="32"/>
      <rect x="49" y="1" width="74" height="32" class="nonterminal"/>
      <text class="nonterminal" x="59" y="21">attribute</text>
   </a>
   <rect x="165" y="37" width="48" height="32" rx="10"/>
   <rect x="163"
          y="35"
          width="48"
          height="32"
          class="terminal"
          rx="10"/>
   <text class="terminal" x="173" y="55">impl</text>
   <a xmlns:xlink="http://www.w3.org/1999/xlink"
       xlink:href="#name"
       xlink:title="name">
      <rect x="233" y="37" width="56" height="32"/>
      <rect x="231" y="35" width="56" height="32" class="nonterminal"/>
      <text class="nonterminal" x="241" y="55">name</text>
   </a>
   <a xmlns:xlink="http://www.w3.org/1999/xlink"
       xlink:href="#type_parameters"
       xlink:title="type_parameters">
      <rect x="329" y="69" width="130" height="32"/>
      <rect x="327" y="67" width="130" height="32" class="nonterminal"/>
      <text class="nonterminal" x="337" y="87">type_parameters</text>
   </a>
   <rect x="499" y="37" width="32" height="32" rx="10"/>
   <rect x="497"
          y="35"
          width="32"
          height="32"
          class="terminal"
          rx="10"/>
   <text class="terminal" x="507" y="55">of</text>
   <a xmlns:xlink="http://www.w3.org/1999/xlink"
       xlink:href="#qualified_name"
       xlink:title="qualified_name">
      <rect x="551" y="37" width="118" height="32"/>
      <rect x="549" y="35" width="118" height="32" class="nonterminal"/>
      <text class="nonterminal" x="559" y="55">qualified_name</text>
   </a>
   <a xmlns:xlink="http://www.w3.org/1999/xlink"
       xlink:href="#impl_body"
       xlink:title="impl_body">
      <rect x="689" y="37" width="84" height="32"/>
      <rect x="687" y="35" width="84" height="32" class="nonterminal"/>
      <text class="nonterminal" x="697" y="55">impl_body</text>
   </a>
   <path class="line"
          d="m17 51 h2 m20 0 h10 m0 0 h84 m-114 0 l20 0 m-1 0 q-9 0 -9 -10 l0 -14 q0 -10 10 -10 m94 34 l20 0 m-20 0 q10 0 10 -10 l0 -14 q0 -10 -10 -10 m-94 0 h10 m74 0 h10 m20 34 h10 m48 0 h10 m0 0 h10 m56 0 h10 m20 0 h10 m0 0 h140 m-170 0 h20 m150 0 h20 m-190 0 q10 0 10 10 m170 0 q0 -10 10 -10 m-180 10 v12 m170 0 v-12 m-170 12 q0 10 10 10 m150 0 q10 0 10 -10 m-160 10 h10 m130 0 h10 m20 -32 h10 m32 0 h10 m0 0 h10 m118 0 h10 m0 0 h10 m84 0 h10 m3 0 h-3"/>
   <polygon points="791 51 799 47 799 55"/>
   <polygon points="791 51 783 47 783 55"/>
</svg>
