<?xml version="1.0" encoding="UTF-8"?>
<svg xmlns="http://www.w3.org/2000/svg" width="367" height="37">
   <defs>
      <style type="text/css">
    @namespace "http://www.w3.org/2000/svg";
    .line                 {fill: none; stroke: #330033; stroke-width: 1;}
    .bold-line            {stroke: #140014; shape-rendering: crispEdges; stroke-width: 2;}
    .thin-line            {stroke: #1F001F; shape-rendering: crispEdges}
    .filled               {fill: #330033; stroke: none;}
    text.terminal         {font-family: Verdana, Sans-serif;
                            font-size: 12px;
                            fill: #140014;
                            font-weight: bold;
                          }
    text.nonterminal      {font-family: Verdana, Sans-serif;
                            font-size: 12px;
                            fill: #19001A;
                            font-weight: normal;
                          }
    text.regexp           {font-family: Verdana, Sans-serif;
                            font-size: 12px;
                            fill: #1F001F;
                            font-weight: normal;
                          }
    rect, circle, polygon {fill: #330033; stroke: #330033;}
    rect.terminal         {fill: #FF4DFF; stroke: #330033; stroke-width: 1;}
    rect.nonterminal      {fill: #FF9EFF; stroke: #330033; stroke-width: 1;}
    rect.text             {fill: none; stroke: none;}
    polygon.regexp        {fill: #FFC7FF; stroke: #330033; stroke-width: 1;}
  </style>
   </defs>
   <polygon points="9 17 1 13 1 21"/>
   <polygon points="17 17 9 13 9 21"/>
   <a xmlns:xlink="http://www.w3.org/1999/xlink"
       xlink:href="#_expression"
       xlink:title="_expression">
      <rect x="31" y="3" width="98" height="32"/>
      <rect x="29" y="1" width="98" height="32" class="nonterminal"/>
      <text class="nonterminal" x="39" y="21">_expression</text>
   </a>
   <rect x="149" y="3" width="26" height="32" rx="10"/>
   <rect x="147"
          y="1"
          width="26"
          height="32"
          class="terminal"
          rx="10"/>
   <text class="terminal" x="157" y="21">[</text>
   <a xmlns:xlink="http://www.w3.org/1999/xlink"
       xlink:href="#_expression"
       xlink:title="_expression">
      <rect x="195" y="3" width="98" height="32"/>
      <rect x="193" y="1" width="98" height="32" class="nonterminal"/>
      <text class="nonterminal" x="203" y="21">_expression</text>
   </a>
   <rect x="313" y="3" width="26" height="32" rx="10"/>
   <rect x="311"
          y="1"
          width="26"
          height="32"
          class="terminal"
          rx="10"/>
   <text class="terminal" x="321" y="21">]</text>
   <path class="line"
          d="m17 17 h2 m0 0 h10 m98 0 h10 m0 0 h10 m26 0 h10 m0 0 h10 m98 0 h10 m0 0 h10 m26 0 h10 m3 0 h-3"/>
   <polygon points="357 17 365 13 365 21"/>
   <polygon points="357 17 349 13 349 21"/>
</svg>
