<?xml version="1.0" encoding="UTF-8"?>
<svg xmlns="http://www.w3.org/2000/svg" width="531" height="85">
   <defs>
      <style type="text/css">
    @namespace "http://www.w3.org/2000/svg";
    .line                 {fill: none; stroke: #332900; stroke-width: 1;}
    .bold-line            {stroke: #141000; shape-rendering: crispEdges; stroke-width: 2;}
    .thin-line            {stroke: #1F1800; shape-rendering: crispEdges}
    .filled               {fill: #332900; stroke: none;}
    text.terminal         {font-family: Verdana, Sans-serif;
                            font-size: 12px;
                            fill: #141000;
                            font-weight: bold;
                          }
    text.nonterminal      {font-family: Verdana, Sans-serif;
                            font-size: 12px;
                            fill: #1A1400;
                            font-weight: normal;
                          }
    text.regexp           {font-family: Verdana, Sans-serif;
                            font-size: 12px;
                            fill: #1F1800;
                            font-weight: normal;
                          }
    rect, circle, polygon {fill: #332900; stroke: #332900;}
    rect.terminal         {fill: #FFDB4D; stroke: #332900; stroke-width: 1;}
    rect.nonterminal      {fill: #FFEC9E; stroke: #332900; stroke-width: 1;}
    rect.text             {fill: none; stroke: none;}
    polygon.regexp        {fill: #FFF4C7; stroke: #332900; stroke-width: 1;}
  </style>
   </defs>
   <polygon points="9 33 1 29 1 37"/>
   <polygon points="17 33 9 29 9 37"/>
   <rect x="31" y="19" width="28" height="32" rx="10"/>
   <rect x="29"
          y="17"
          width="28"
          height="32"
          class="terminal"
          rx="10"/>
   <text class="terminal" x="39" y="37">{</text>
   <a xmlns:xlink="http://www.w3.org/1999/xlink"
       xlink:href="#match_case"
       xlink:title="match_case">
      <rect x="119" y="19" width="96" height="32"/>
      <rect x="117" y="17" width="96" height="32" class="nonterminal"/>
      <text class="nonterminal" x="127" y="37">match_case</text>
   </a>
   <rect x="235" y="19" width="24" height="32" rx="10"/>
   <rect x="233"
          y="17"
          width="24"
          height="32"
          class="terminal"
          rx="10"/>
   <text class="terminal" x="243" y="37">,</text>
   <a xmlns:xlink="http://www.w3.org/1999/xlink"
       xlink:href="#match_case"
       xlink:title="match_case">
      <rect x="339" y="51" width="96" height="32"/>
      <rect x="337" y="49" width="96" height="32" class="nonterminal"/>
      <text class="nonterminal" x="347" y="69">match_case</text>
   </a>
   <rect x="475" y="19" width="28" height="32" rx="10"/>
   <rect x="473"
          y="17"
          width="28"
          height="32"
          class="terminal"
          rx="10"/>
   <text class="terminal" x="483" y="37">}</text>
   <path class="line"
          d="m17 33 h2 m0 0 h10 m28 0 h10 m40 0 h10 m96 0 h10 m0 0 h10 m24 0 h10 m-180 0 l20 0 m-1 0 q-9 0 -9 -10 l0 -12 q0 -10 10 -10 m160 32 l20 0 m-20 0 q10 0 10 -10 l0 -12 q0 -10 -10 -10 m-160 0 h10 m0 0 h150 m-200 32 h20 m200 0 h20 m-240 0 q10 0 10 10 m220 0 q0 -10 10 -10 m-230 10 v14 m220 0 v-14 m-220 14 q0 10 10 10 m200 0 q10 0 10 -10 m-210 10 h10 m0 0 h190 m40 -34 h10 m0 0 h106 m-136 0 h20 m116 0 h20 m-156 0 q10 0 10 10 m136 0 q0 -10 10 -10 m-146 10 v12 m136 0 v-12 m-136 12 q0 10 10 10 m116 0 q10 0 10 -10 m-126 10 h10 m96 0 h10 m20 -32 h10 m28 0 h10 m3 0 h-3"/>
   <polygon points="521 33 529 29 529 37"/>
   <polygon points="521 33 513 29 513 37"/>
</svg>
