<?xml version="1.0" encoding="UTF-8"?>
<svg xmlns="http://www.w3.org/2000/svg" width="639" height="85">
   <defs>
      <style type="text/css">
    @namespace "http://www.w3.org/2000/svg";
    .line                 {fill: none; stroke: #330033; stroke-width: 1;}
    .bold-line            {stroke: #140014; shape-rendering: crispEdges; stroke-width: 2;}
    .thin-line            {stroke: #1F001F; shape-rendering: crispEdges}
    .filled               {fill: #330033; stroke: none;}
    text.terminal         {font-family: Verdana, Sans-serif;
                            font-size: 12px;
                            fill: #140014;
                            font-weight: bold;
                          }
    text.nonterminal      {font-family: Verdana, Sans-serif;
                            font-size: 12px;
                            fill: #19001A;
                            font-weight: normal;
                          }
    text.regexp           {font-family: Verdana, Sans-serif;
                            font-size: 12px;
                            fill: #1F001F;
                            font-weight: normal;
                          }
    rect, circle, polygon {fill: #330033; stroke: #330033;}
    rect.terminal         {fill: #FF4DFF; stroke: #330033; stroke-width: 1;}
    rect.nonterminal      {fill: #FF9EFF; stroke: #330033; stroke-width: 1;}
    rect.text             {fill: none; stroke: none;}
    polygon.regexp        {fill: #FFC7FF; stroke: #330033; stroke-width: 1;}
  </style>
   </defs>
   <polygon points="9 33 1 29 1 37"/>
   <polygon points="17 33 9 29 9 37"/>
   <rect x="31" y="19" width="28" height="32" rx="10"/>
   <rect x="29"
          y="17"
          width="28"
          height="32"
          class="terminal"
          rx="10"/>
   <text class="terminal" x="39" y="37">{</text>
   <a xmlns:xlink="http://www.w3.org/1999/xlink"
       xlink:href="#member_declaration"
       xlink:title="member_declaration">
      <rect x="119" y="19" width="150" height="32"/>
      <rect x="117" y="17" width="150" height="32" class="nonterminal"/>
      <text class="nonterminal" x="127" y="37">member_declaration</text>
   </a>
   <rect x="289" y="19" width="24" height="32" rx="10"/>
   <rect x="287"
          y="17"
          width="24"
          height="32"
          class="terminal"
          rx="10"/>
   <text class="terminal" x="297" y="37">,</text>
   <a xmlns:xlink="http://www.w3.org/1999/xlink"
       xlink:href="#member_declaration"
       xlink:title="member_declaration">
      <rect x="393" y="51" width="150" height="32"/>
      <rect x="391" y="49" width="150" height="32" class="nonterminal"/>
      <text class="nonterminal" x="401" y="69">member_declaration</text>
   </a>
   <rect x="583" y="19" width="28" height="32" rx="10"/>
   <rect x="581"
          y="17"
          width="28"
          height="32"
          class="terminal"
          rx="10"/>
   <text class="terminal" x="591" y="37">}</text>
   <path class="line"
          d="m17 33 h2 m0 0 h10 m28 0 h10 m40 0 h10 m150 0 h10 m0 0 h10 m24 0 h10 m-234 0 l20 0 m-1 0 q-9 0 -9 -10 l0 -12 q0 -10 10 -10 m214 32 l20 0 m-20 0 q10 0 10 -10 l0 -12 q0 -10 -10 -10 m-214 0 h10 m0 0 h204 m-254 32 h20 m254 0 h20 m-294 0 q10 0 10 10 m274 0 q0 -10 10 -10 m-284 10 v14 m274 0 v-14 m-274 14 q0 10 10 10 m254 0 q10 0 10 -10 m-264 10 h10 m0 0 h244 m40 -34 h10 m0 0 h160 m-190 0 h20 m170 0 h20 m-210 0 q10 0 10 10 m190 0 q0 -10 10 -10 m-200 10 v12 m190 0 v-12 m-190 12 q0 10 10 10 m170 0 q10 0 10 -10 m-180 10 h10 m150 0 h10 m20 -32 h10 m28 0 h10 m3 0 h-3"/>
   <polygon points="629 33 637 29 637 37"/>
   <polygon points="629 33 621 29 621 37"/>
</svg>
