<?xml version="1.0" encoding="UTF-8"?>
<svg xmlns="http://www.w3.org/2000/svg" width="483" height="115">
   <defs>
      <style type="text/css">
    @namespace "http://www.w3.org/2000/svg";
    .line                 {fill: none; stroke: #332900; stroke-width: 1;}
    .bold-line            {stroke: #141000; shape-rendering: crispEdges; stroke-width: 2;}
    .thin-line            {stroke: #1F1800; shape-rendering: crispEdges}
    .filled               {fill: #332900; stroke: none;}
    text.terminal         {font-family: Verdana, Sans-serif;
                            font-size: 12px;
                            fill: #141000;
                            font-weight: bold;
                          }
    text.nonterminal      {font-family: Verdana, Sans-serif;
                            font-size: 12px;
                            fill: #1A1400;
                            font-weight: normal;
                          }
    text.regexp           {font-family: Verdana, Sans-serif;
                            font-size: 12px;
                            fill: #1F1800;
                            font-weight: normal;
                          }
    rect, circle, polygon {fill: #332900; stroke: #332900;}
    rect.terminal         {fill: #FFDB4D; stroke: #332900; stroke-width: 1;}
    rect.nonterminal      {fill: #FFEC9E; stroke: #332900; stroke-width: 1;}
    rect.text             {fill: none; stroke: none;}
    polygon.regexp        {fill: #FFF4C7; stroke: #332900; stroke-width: 1;}
  </style>
   </defs>
   <polygon points="9 51 1 47 1 55"/>
   <polygon points="17 51 9 47 9 55"/>
   <a xmlns:xlink="http://www.w3.org/1999/xlink"
       xlink:href="#attribute"
       xlink:title="attribute">
      <rect x="51" y="3" width="74" height="32"/>
      <rect x="49" y="1" width="74" height="32" class="nonterminal"/>
      <text class="nonterminal" x="59" y="21">attribute</text>
   </a>
   <rect x="165" y="37" width="48" height="32" rx="10"/>
   <rect x="163"
          y="35"
          width="48"
          height="32"
          class="terminal"
          rx="10"/>
   <text class="terminal" x="173" y="55">mod</text>
   <a xmlns:xlink="http://www.w3.org/1999/xlink"
       xlink:href="#name"
       xlink:title="name">
      <rect x="233" y="37" width="56" height="32"/>
      <rect x="231" y="35" width="56" height="32" class="nonterminal"/>
      <text class="nonterminal" x="241" y="55">name</text>
   </a>
   <rect x="329" y="37" width="24" height="32" rx="10"/>
   <rect x="327"
          y="35"
          width="24"
          height="32"
          class="terminal"
          rx="10"/>
   <text class="terminal" x="337" y="55">;</text>
   <a xmlns:xlink="http://www.w3.org/1999/xlink"
       xlink:href="#module_body"
       xlink:title="module_body">
      <rect x="329" y="81" width="106" height="32"/>
      <rect x="327" y="79" width="106" height="32" class="nonterminal"/>
      <text class="nonterminal" x="337" y="99">module_body</text>
   </a>
   <path class="line"
          d="m17 51 h2 m20 0 h10 m0 0 h84 m-114 0 l20 0 m-1 0 q-9 0 -9 -10 l0 -14 q0 -10 10 -10 m94 34 l20 0 m-20 0 q10 0 10 -10 l0 -14 q0 -10 -10 -10 m-94 0 h10 m74 0 h10 m20 34 h10 m48 0 h10 m0 0 h10 m56 0 h10 m20 0 h10 m24 0 h10 m0 0 h82 m-146 0 h20 m126 0 h20 m-166 0 q10 0 10 10 m146 0 q0 -10 10 -10 m-156 10 v24 m146 0 v-24 m-146 24 q0 10 10 10 m126 0 q10 0 10 -10 m-136 10 h10 m106 0 h10 m23 -44 h-3"/>
   <polygon points="473 51 481 47 481 55"/>
   <polygon points="473 51 465 47 465 55"/>
</svg>
