<?xml version="1.0" encoding="UTF-8"?>
<svg xmlns="http://www.w3.org/2000/svg" width="283" height="247">
   <defs>
      <style type="text/css">
    @namespace "http://www.w3.org/2000/svg";
    .line                 {fill: none; stroke: #332900; stroke-width: 1;}
    .bold-line            {stroke: #141000; shape-rendering: crispEdges; stroke-width: 2;}
    .thin-line            {stroke: #1F1800; shape-rendering: crispEdges}
    .filled               {fill: #332900; stroke: none;}
    text.terminal         {font-family: Verdana, Sans-serif;
                            font-size: 12px;
                            fill: #141000;
                            font-weight: bold;
                          }
    text.nonterminal      {font-family: Verdana, Sans-serif;
                            font-size: 12px;
                            fill: #1A1400;
                            font-weight: normal;
                          }
    text.regexp           {font-family: Verdana, Sans-serif;
                            font-size: 12px;
                            fill: #1F1800;
                            font-weight: normal;
                          }
    rect, circle, polygon {fill: #332900; stroke: #332900;}
    rect.terminal         {fill: #FFDB4D; stroke: #332900; stroke-width: 1;}
    rect.nonterminal      {fill: #FFEC9E; stroke: #332900; stroke-width: 1;}
    rect.text             {fill: none; stroke: none;}
    polygon.regexp        {fill: #FFF4C7; stroke: #332900; stroke-width: 1;}
  </style>
   </defs>
   <polygon points="9 183 1 179 1 187"/>
   <polygon points="17 183 9 179 9 187"/>
   <polygon points="51 185 58 169 104 169 111 185 104 201 58 201"/>
   <polygon points="49 183 56 167 102 167 109 183 102 199 56 199" class="regexp"/>
   <text class="regexp" x="64" y="187">[a-z]</text>
   <polygon points="51 229 58 213 106 213 113 229 106 245 58 245"/>
   <polygon points="49 227 56 211 104 211 111 227 104 243 56 243" class="regexp"/>
   <text class="regexp" x="64" y="231">[A-Z]</text>
   <polygon points="173 151 180 135 226 135 233 151 226 167 180 167"/>
   <polygon points="171 149 178 133 224 133 231 149 224 165 178 165" class="regexp"/>
   <text class="regexp" x="186" y="153">[a-z]</text>
   <polygon points="173 107 180 91 228 91 235 107 228 123 180 123"/>
   <polygon points="171 105 178 89 226 89 233 105 226 121 178 121" class="regexp"/>
   <text class="regexp" x="186" y="109">[A-Z]</text>
   <polygon points="173 63 180 47 228 47 235 63 228 79 180 79"/>
   <polygon points="171 61 178 45 226 45 233 61 226 77 178 77" class="regexp"/>
   <text class="regexp" x="186" y="65">[0-9]</text>
   <rect x="173" y="3" width="28" height="32" rx="10"/>
   <rect x="171"
          y="1"
          width="28"
          height="32"
          class="terminal"
          rx="10"/>
   <text class="terminal" x="181" y="21">_</text>
   <path class="line"
          d="m17 183 h2 m20 0 h10 m60 0 h10 m0 0 h2 m-102 0 h20 m82 0 h20 m-122 0 q10 0 10 10 m102 0 q0 -10 10 -10 m-112 10 v24 m102 0 v-24 m-102 24 q0 10 10 10 m82 0 q10 0 10 -10 m-92 10 h10 m62 0 h10 m40 -44 h10 m0 0 h72 m-102 0 l20 0 m-1 0 q-9 0 -9 -10 l0 -14 q0 -10 10 -10 m82 34 l20 0 m-20 0 q10 0 10 -10 l0 -14 q0 -10 -10 -10 m-82 0 h10 m60 0 h10 m0 0 h2 m-92 10 l0 -44 q0 -10 10 -10 m92 54 l0 -44 q0 -10 -10 -10 m-82 0 h10 m62 0 h10 m-92 10 l0 -44 q0 -10 10 -10 m92 54 l0 -44 q0 -10 -10 -10 m-82 0 h10 m62 0 h10 m-92 10 l0 -44 q0 -10 10 -10 m92 54 l0 -44 q0 -10 -10 -10 m-82 0 h10 m28 0 h10 m0 0 h34 m23 166 h-3"/>
   <polygon points="273 183 281 179 281 187"/>
   <polygon points="273 183 265 179 265 187"/>
</svg>
