<?xml version="1.0" encoding="UTF-8"?>
<svg xmlns="http://www.w3.org/2000/svg" width="341" height="169">
   <defs>
      <style type="text/css">
    @namespace "http://www.w3.org/2000/svg";
    .line                 {fill: none; stroke: #330033; stroke-width: 1;}
    .bold-line            {stroke: #140014; shape-rendering: crispEdges; stroke-width: 2;}
    .thin-line            {stroke: #1F001F; shape-rendering: crispEdges}
    .filled               {fill: #330033; stroke: none;}
    text.terminal         {font-family: Verdana, Sans-serif;
                            font-size: 12px;
                            fill: #140014;
                            font-weight: bold;
                          }
    text.nonterminal      {font-family: Verdana, Sans-serif;
                            font-size: 12px;
                            fill: #19001A;
                            font-weight: normal;
                          }
    text.regexp           {font-family: Verdana, Sans-serif;
                            font-size: 12px;
                            fill: #1F001F;
                            font-weight: normal;
                          }
    rect, circle, polygon {fill: #330033; stroke: #330033;}
    rect.terminal         {fill: #FF4DFF; stroke: #330033; stroke-width: 1;}
    rect.nonterminal      {fill: #FF9EFF; stroke: #330033; stroke-width: 1;}
    rect.text             {fill: none; stroke: none;}
    polygon.regexp        {fill: #FFC7FF; stroke: #330033; stroke-width: 1;}
  </style>
   </defs>
   <polygon points="9 17 1 13 1 21"/>
   <polygon points="17 17 9 13 9 21"/>
   <a xmlns:xlink="http://www.w3.org/1999/xlink"
       xlink:href="#integer"
       xlink:title="integer">
      <rect x="51" y="3" width="64" height="32"/>
      <rect x="49" y="1" width="64" height="32" class="nonterminal"/>
      <text class="nonterminal" x="59" y="21">integer</text>
   </a>
   <a xmlns:xlink="http://www.w3.org/1999/xlink"
       xlink:href="#hex"
       xlink:title="hex">
      <rect x="51" y="47" width="42" height="32"/>
      <rect x="49" y="45" width="42" height="32" class="nonterminal"/>
      <text class="nonterminal" x="59" y="65">hex</text>
   </a>
   <a xmlns:xlink="http://www.w3.org/1999/xlink"
       xlink:href="#octal"
       xlink:title="octal">
      <rect x="51" y="91" width="50" height="32"/>
      <rect x="49" y="89" width="50" height="32" class="nonterminal"/>
      <text class="nonterminal" x="59" y="109">octal</text>
   </a>
   <a xmlns:xlink="http://www.w3.org/1999/xlink"
       xlink:href="#binary"
       xlink:title="binary">
      <rect x="51" y="135" width="60" height="32"/>
      <rect x="49" y="133" width="60" height="32" class="nonterminal"/>
      <text class="nonterminal" x="59" y="153">binary</text>
   </a>
   <a xmlns:xlink="http://www.w3.org/1999/xlink"
       xlink:href="#_number_suffix"
       xlink:title="_number_suffix">
      <rect x="175" y="35" width="118" height="32"/>
      <rect x="173" y="33" width="118" height="32" class="nonterminal"/>
      <text class="nonterminal" x="183" y="53">_number_suffix</text>
   </a>
   <path class="line"
          d="m17 17 h2 m20 0 h10 m64 0 h10 m-104 0 h20 m84 0 h20 m-124 0 q10 0 10 10 m104 0 q0 -10 10 -10 m-114 10 v24 m104 0 v-24 m-104 24 q0 10 10 10 m84 0 q10 0 10 -10 m-94 10 h10 m42 0 h10 m0 0 h22 m-94 -10 v20 m104 0 v-20 m-104 20 v24 m104 0 v-24 m-104 24 q0 10 10 10 m84 0 q10 0 10 -10 m-94 10 h10 m50 0 h10 m0 0 h14 m-94 -10 v20 m104 0 v-20 m-104 20 v24 m104 0 v-24 m-104 24 q0 10 10 10 m84 0 q10 0 10 -10 m-94 10 h10 m60 0 h10 m0 0 h4 m40 -132 h10 m0 0 h128 m-158 0 h20 m138 0 h20 m-178 0 q10 0 10 10 m158 0 q0 -10 10 -10 m-168 10 v12 m158 0 v-12 m-158 12 q0 10 10 10 m138 0 q10 0 10 -10 m-148 10 h10 m118 0 h10 m23 -32 h-3"/>
   <polygon points="331 17 339 13 339 21"/>
   <polygon points="331 17 323 13 323 21"/>
</svg>
