<?xml version="1.0" encoding="UTF-8"?>
<svg xmlns="http://www.w3.org/2000/svg" width="217" height="53">
   <defs>
      <style type="text/css">
    @namespace "http://www.w3.org/2000/svg";
    .line                 {fill: none; stroke: #332900; stroke-width: 1;}
    .bold-line            {stroke: #141000; shape-rendering: crispEdges; stroke-width: 2;}
    .thin-line            {stroke: #1F1800; shape-rendering: crispEdges}
    .filled               {fill: #332900; stroke: none;}
    text.terminal         {font-family: Verdana, Sans-serif;
                            font-size: 12px;
                            fill: #141000;
                            font-weight: bold;
                          }
    text.nonterminal      {font-family: Verdana, Sans-serif;
                            font-size: 12px;
                            fill: #1A1400;
                            font-weight: normal;
                          }
    text.regexp           {font-family: Verdana, Sans-serif;
                            font-size: 12px;
                            fill: #1F1800;
                            font-weight: normal;
                          }
    rect, circle, polygon {fill: #332900; stroke: #332900;}
    rect.terminal         {fill: #FFDB4D; stroke: #332900; stroke-width: 1;}
    rect.nonterminal      {fill: #FFEC9E; stroke: #332900; stroke-width: 1;}
    rect.text             {fill: none; stroke: none;}
    polygon.regexp        {fill: #FFF4C7; stroke: #332900; stroke-width: 1;}
  </style>
   </defs>
   <polygon points="9 33 1 29 1 37"/>
   <polygon points="17 33 9 29 9 37"/>
   <rect x="31" y="19" width="36" height="32" rx="10"/>
   <rect x="29"
          y="17"
          width="36"
          height="32"
          class="terminal"
          rx="10"/>
   <text class="terminal" x="39" y="37">0o</text>
   <polygon points="107 35 114 19 162 19 169 35 162 51 114 51"/>
   <polygon points="105 33 112 17 160 17 167 33 160 49 112 49" class="regexp"/>
   <text class="regexp" x="120" y="37">[0-7]</text>
   <path class="line"
          d="m17 33 h2 m0 0 h10 m36 0 h10 m20 0 h10 m62 0 h10 m-102 0 l20 0 m-1 0 q-9 0 -9 -10 l0 -12 q0 -10 10 -10 m82 32 l20 0 m-20 0 q10 0 10 -10 l0 -12 q0 -10 -10 -10 m-82 0 h10 m0 0 h72 m23 32 h-3"/>
   <polygon points="207 33 215 29 215 37"/>
   <polygon points="207 33 199 29 199 37"/>
</svg>
