<?xml version="1.0" encoding="UTF-8"?>
<svg xmlns="http://www.w3.org/2000/svg" width="507" height="85">
   <defs>
      <style type="text/css">
    @namespace "http://www.w3.org/2000/svg";
    .line                 {fill: none; stroke: #332900; stroke-width: 1;}
    .bold-line            {stroke: #141000; shape-rendering: crispEdges; stroke-width: 2;}
    .thin-line            {stroke: #1F1800; shape-rendering: crispEdges}
    .filled               {fill: #332900; stroke: none;}
    text.terminal         {font-family: Verdana, Sans-serif;
                            font-size: 12px;
                            fill: #141000;
                            font-weight: bold;
                          }
    text.nonterminal      {font-family: Verdana, Sans-serif;
                            font-size: 12px;
                            fill: #1A1400;
                            font-weight: normal;
                          }
    text.regexp           {font-family: Verdana, Sans-serif;
                            font-size: 12px;
                            fill: #1F1800;
                            font-weight: normal;
                          }
    rect, circle, polygon {fill: #332900; stroke: #332900;}
    rect.terminal         {fill: #FFDB4D; stroke: #332900; stroke-width: 1;}
    rect.nonterminal      {fill: #FFEC9E; stroke: #332900; stroke-width: 1;}
    rect.text             {fill: none; stroke: none;}
    polygon.regexp        {fill: #FFF4C7; stroke: #332900; stroke-width: 1;}
  </style>
   </defs>
   <polygon points="9 33 1 29 1 37"/>
   <polygon points="17 33 9 29 9 37"/>
   <rect x="31" y="19" width="26" height="32" rx="10"/>
   <rect x="29"
          y="17"
          width="26"
          height="32"
          class="terminal"
          rx="10"/>
   <text class="terminal" x="39" y="37">(</text>
   <a xmlns:xlink="http://www.w3.org/1999/xlink"
       xlink:href="#parameter"
       xlink:title="parameter">
      <rect x="117" y="19" width="86" height="32"/>
      <rect x="115" y="17" width="86" height="32" class="nonterminal"/>
      <text class="nonterminal" x="125" y="37">parameter</text>
   </a>
   <rect x="223" y="19" width="24" height="32" rx="10"/>
   <rect x="221"
          y="17"
          width="24"
          height="32"
          class="terminal"
          rx="10"/>
   <text class="terminal" x="231" y="37">,</text>
   <a xmlns:xlink="http://www.w3.org/1999/xlink"
       xlink:href="#parameter"
       xlink:title="parameter">
      <rect x="327" y="51" width="86" height="32"/>
      <rect x="325" y="49" width="86" height="32" class="nonterminal"/>
      <text class="nonterminal" x="335" y="69">parameter</text>
   </a>
   <rect x="453" y="19" width="26" height="32" rx="10"/>
   <rect x="451"
          y="17"
          width="26"
          height="32"
          class="terminal"
          rx="10"/>
   <text class="terminal" x="461" y="37">)</text>
   <path class="line"
          d="m17 33 h2 m0 0 h10 m26 0 h10 m40 0 h10 m86 0 h10 m0 0 h10 m24 0 h10 m-170 0 l20 0 m-1 0 q-9 0 -9 -10 l0 -12 q0 -10 10 -10 m150 32 l20 0 m-20 0 q10 0 10 -10 l0 -12 q0 -10 -10 -10 m-150 0 h10 m0 0 h140 m-190 32 h20 m190 0 h20 m-230 0 q10 0 10 10 m210 0 q0 -10 10 -10 m-220 10 v14 m210 0 v-14 m-210 14 q0 10 10 10 m190 0 q10 0 10 -10 m-200 10 h10 m0 0 h180 m40 -34 h10 m0 0 h96 m-126 0 h20 m106 0 h20 m-146 0 q10 0 10 10 m126 0 q0 -10 10 -10 m-136 10 v12 m126 0 v-12 m-126 12 q0 10 10 10 m106 0 q10 0 10 -10 m-116 10 h10 m86 0 h10 m20 -32 h10 m26 0 h10 m3 0 h-3"/>
   <polygon points="497 33 505 29 505 37"/>
   <polygon points="497 33 489 29 489 37"/>
</svg>
