<?xml version="1.0" encoding="UTF-8"?>
<svg xmlns="http://www.w3.org/2000/svg" width="679" height="85">
   <defs>
      <style type="text/css">
    @namespace "http://www.w3.org/2000/svg";
    .line                 {fill: none; stroke: #330033; stroke-width: 1;}
    .bold-line            {stroke: #140014; shape-rendering: crispEdges; stroke-width: 2;}
    .thin-line            {stroke: #1F001F; shape-rendering: crispEdges}
    .filled               {fill: #330033; stroke: none;}
    text.terminal         {font-family: Verdana, Sans-serif;
                            font-size: 12px;
                            fill: #140014;
                            font-weight: bold;
                          }
    text.nonterminal      {font-family: Verdana, Sans-serif;
                            font-size: 12px;
                            fill: #19001A;
                            font-weight: normal;
                          }
    text.regexp           {font-family: Verdana, Sans-serif;
                            font-size: 12px;
                            fill: #1F001F;
                            font-weight: normal;
                          }
    rect, circle, polygon {fill: #330033; stroke: #330033;}
    rect.terminal         {fill: #FF4DFF; stroke: #330033; stroke-width: 1;}
    rect.nonterminal      {fill: #FF9EFF; stroke: #330033; stroke-width: 1;}
    rect.text             {fill: none; stroke: none;}
    polygon.regexp        {fill: #FFC7FF; stroke: #330033; stroke-width: 1;}
  </style>
   </defs>
   <polygon points="9 33 1 29 1 37"/>
   <polygon points="17 33 9 29 9 37"/>
   <a xmlns:xlink="http://www.w3.org/1999/xlink"
       xlink:href="#qualified_name_segment"
       xlink:title="qualified_name_segment">
      <rect x="71" y="19" width="180" height="32"/>
      <rect x="69" y="17" width="180" height="32" class="nonterminal"/>
      <text class="nonterminal" x="79" y="37">qualified_name_segment</text>
   </a>
   <rect x="271" y="19" width="30" height="32" rx="10"/>
   <rect x="269"
          y="17"
          width="30"
          height="32"
          class="terminal"
          rx="10"/>
   <text class="terminal" x="279" y="37">::</text>
   <a xmlns:xlink="http://www.w3.org/1999/xlink"
       xlink:href="#name"
       xlink:title="name">
      <rect x="361" y="19" width="56" height="32"/>
      <rect x="359" y="17" width="56" height="32" class="nonterminal"/>
      <text class="nonterminal" x="369" y="37">name</text>
   </a>
   <rect x="457" y="51" width="30" height="32" rx="10"/>
   <rect x="455"
          y="49"
          width="30"
          height="32"
          class="terminal"
          rx="10"/>
   <text class="terminal" x="465" y="69">::</text>
   <a xmlns:xlink="http://www.w3.org/1999/xlink"
       xlink:href="#type_arguments"
       xlink:title="type_arguments">
      <rect x="507" y="51" width="124" height="32"/>
      <rect x="505" y="49" width="124" height="32" class="nonterminal"/>
      <text class="nonterminal" x="515" y="69">type_arguments</text>
   </a>
   <path class="line"
          d="m17 33 h2 m40 0 h10 m180 0 h10 m0 0 h10 m30 0 h10 m-270 0 l20 0 m-1 0 q-9 0 -9 -10 l0 -12 q0 -10 10 -10 m250 32 l20 0 m-20 0 q10 0 10 -10 l0 -12 q0 -10 -10 -10 m-250 0 h10 m0 0 h240 m-290 32 h20 m290 0 h20 m-330 0 q10 0 10 10 m310 0 q0 -10 10 -10 m-320 10 v14 m310 0 v-14 m-310 14 q0 10 10 10 m290 0 q10 0 10 -10 m-300 10 h10 m0 0 h280 m20 -34 h10 m56 0 h10 m20 0 h10 m0 0 h184 m-214 0 h20 m194 0 h20 m-234 0 q10 0 10 10 m214 0 q0 -10 10 -10 m-224 10 v12 m214 0 v-12 m-214 12 q0 10 10 10 m194 0 q10 0 10 -10 m-204 10 h10 m30 0 h10 m0 0 h10 m124 0 h10 m23 -32 h-3"/>
   <polygon points="669 33 677 29 677 37"/>
   <polygon points="669 33 661 29 661 37"/>
</svg>
