<?xml version="1.0" encoding="UTF-8"?>
<svg xmlns="http://www.w3.org/2000/svg" width="197" height="57">
   <defs>
      <style type="text/css">
    @namespace "http://www.w3.org/2000/svg";
    .line                 {fill: none; stroke: #330033; stroke-width: 1;}
    .bold-line            {stroke: #140014; shape-rendering: crispEdges; stroke-width: 2;}
    .thin-line            {stroke: #1F001F; shape-rendering: crispEdges}
    .filled               {fill: #330033; stroke: none;}
    text.terminal         {font-family: Verdana, Sans-serif;
                            font-size: 12px;
                            fill: #140014;
                            font-weight: bold;
                          }
    text.nonterminal      {font-family: Verdana, Sans-serif;
                            font-size: 12px;
                            fill: #19001A;
                            font-weight: normal;
                          }
    text.regexp           {font-family: Verdana, Sans-serif;
                            font-size: 12px;
                            fill: #1F001F;
                            font-weight: normal;
                          }
    rect, circle, polygon {fill: #330033; stroke: #330033;}
    rect.terminal         {fill: #FF4DFF; stroke: #330033; stroke-width: 1;}
    rect.nonterminal      {fill: #FF9EFF; stroke: #330033; stroke-width: 1;}
    rect.text             {fill: none; stroke: none;}
    polygon.regexp        {fill: #FFC7FF; stroke: #330033; stroke-width: 1;}
  </style>
   </defs>
   <polygon points="9 51 1 47 1 55"/>
   <polygon points="17 51 9 47 9 55"/>
   <a xmlns:xlink="http://www.w3.org/1999/xlink"
       xlink:href="#_declaration"
       xlink:title="_declaration">
      <rect x="51" y="3" width="98" height="32"/>
      <rect x="49" y="1" width="98" height="32" class="nonterminal"/>
      <text class="nonterminal" x="59" y="21">_declaration</text>
   </a>
   <path class="line"
          d="m17 51 h2 m20 0 h10 m0 0 h108 m-138 0 l20 0 m-1 0 q-9 0 -9 -10 l0 -14 q0 -10 10 -10 m118 34 l20 0 m-20 0 q10 0 10 -10 l0 -14 q0 -10 -10 -10 m-118 0 h10 m98 0 h10 m23 34 h-3"/>
   <polygon points="187 51 195 47 195 55"/>
   <polygon points="187 51 179 47 179 55"/>
</svg>
