<?xml version="1.0" encoding="UTF-8"?>
<svg xmlns="http://www.w3.org/2000/svg" width="735" height="115">
   <defs>
      <style type="text/css">
    @namespace "http://www.w3.org/2000/svg";
    .line                 {fill: none; stroke: #332900; stroke-width: 1;}
    .bold-line            {stroke: #141000; shape-rendering: crispEdges; stroke-width: 2;}
    .thin-line            {stroke: #1F1800; shape-rendering: crispEdges}
    .filled               {fill: #332900; stroke: none;}
    text.terminal         {font-family: Verdana, Sans-serif;
                            font-size: 12px;
                            fill: #141000;
                            font-weight: bold;
                          }
    text.nonterminal      {font-family: Verdana, Sans-serif;
                            font-size: 12px;
                            fill: #1A1400;
                            font-weight: normal;
                          }
    text.regexp           {font-family: Verdana, Sans-serif;
                            font-size: 12px;
                            fill: #1F1800;
                            font-weight: normal;
                          }
    rect, circle, polygon {fill: #332900; stroke: #332900;}
    rect.terminal         {fill: #FFDB4D; stroke: #332900; stroke-width: 1;}
    rect.nonterminal      {fill: #FFEC9E; stroke: #332900; stroke-width: 1;}
    rect.text             {fill: none; stroke: none;}
    polygon.regexp        {fill: #FFF4C7; stroke: #332900; stroke-width: 1;}
  </style>
   </defs>
   <polygon points="9 51 1 47 1 55"/>
   <polygon points="17 51 9 47 9 55"/>
   <a xmlns:xlink="http://www.w3.org/1999/xlink"
       xlink:href="#attribute"
       xlink:title="attribute">
      <rect x="51" y="3" width="74" height="32"/>
      <rect x="49" y="1" width="74" height="32" class="nonterminal"/>
      <text class="nonterminal" x="59" y="21">attribute</text>
   </a>
   <rect x="165" y="37" width="58" height="32" rx="10"/>
   <rect x="163"
          y="35"
          width="58"
          height="32"
          class="terminal"
          rx="10"/>
   <text class="terminal" x="173" y="55">struct</text>
   <a xmlns:xlink="http://www.w3.org/1999/xlink"
       xlink:href="#name"
       xlink:title="name">
      <rect x="243" y="37" width="56" height="32"/>
      <rect x="241" y="35" width="56" height="32" class="nonterminal"/>
      <text class="nonterminal" x="251" y="55">name</text>
   </a>
   <a xmlns:xlink="http://www.w3.org/1999/xlink"
       xlink:href="#type_parameters"
       xlink:title="type_parameters">
      <rect x="339" y="69" width="130" height="32"/>
      <rect x="337" y="67" width="130" height="32" class="nonterminal"/>
      <text class="nonterminal" x="347" y="87">type_parameters</text>
   </a>
   <a xmlns:xlink="http://www.w3.org/1999/xlink"
       xlink:href="#member_declarations"
       xlink:title="member_declarations">
      <rect x="529" y="37" width="158" height="32"/>
      <rect x="527" y="35" width="158" height="32" class="nonterminal"/>
      <text class="nonterminal" x="537" y="55">member_declarations</text>
   </a>
   <rect x="529" y="81" width="24" height="32" rx="10"/>
   <rect x="527"
          y="79"
          width="24"
          height="32"
          class="terminal"
          rx="10"/>
   <text class="terminal" x="537" y="99">;</text>
   <path class="line"
          d="m17 51 h2 m20 0 h10 m0 0 h84 m-114 0 l20 0 m-1 0 q-9 0 -9 -10 l0 -14 q0 -10 10 -10 m94 34 l20 0 m-20 0 q10 0 10 -10 l0 -14 q0 -10 -10 -10 m-94 0 h10 m74 0 h10 m20 34 h10 m58 0 h10 m0 0 h10 m56 0 h10 m20 0 h10 m0 0 h140 m-170 0 h20 m150 0 h20 m-190 0 q10 0 10 10 m170 0 q0 -10 10 -10 m-180 10 v12 m170 0 v-12 m-170 12 q0 10 10 10 m150 0 q10 0 10 -10 m-160 10 h10 m130 0 h10 m40 -32 h10 m158 0 h10 m-198 0 h20 m178 0 h20 m-218 0 q10 0 10 10 m198 0 q0 -10 10 -10 m-208 10 v24 m198 0 v-24 m-198 24 q0 10 10 10 m178 0 q10 0 10 -10 m-188 10 h10 m24 0 h10 m0 0 h134 m23 -44 h-3"/>
   <polygon points="725 51 733 47 733 55"/>
   <polygon points="725 51 717 47 717 55"/>
</svg>
