<?xml version="1.0" encoding="UTF-8"?>
<svg xmlns="http://www.w3.org/2000/svg" width="447" height="85">
   <defs>
      <style type="text/css">
    @namespace "http://www.w3.org/2000/svg";
    .line                 {fill: none; stroke: #332900; stroke-width: 1;}
    .bold-line            {stroke: #141000; shape-rendering: crispEdges; stroke-width: 2;}
    .thin-line            {stroke: #1F1800; shape-rendering: crispEdges}
    .filled               {fill: #332900; stroke: none;}
    text.terminal         {font-family: Verdana, Sans-serif;
                            font-size: 12px;
                            fill: #141000;
                            font-weight: bold;
                          }
    text.nonterminal      {font-family: Verdana, Sans-serif;
                            font-size: 12px;
                            fill: #1A1400;
                            font-weight: normal;
                          }
    text.regexp           {font-family: Verdana, Sans-serif;
                            font-size: 12px;
                            fill: #1F1800;
                            font-weight: normal;
                          }
    rect, circle, polygon {fill: #332900; stroke: #332900;}
    rect.terminal         {fill: #FFDB4D; stroke: #332900; stroke-width: 1;}
    rect.nonterminal      {fill: #FFEC9E; stroke: #332900; stroke-width: 1;}
    rect.text             {fill: none; stroke: none;}
    polygon.regexp        {fill: #FFF4C7; stroke: #332900; stroke-width: 1;}
  </style>
   </defs>
   <polygon points="9 33 1 29 1 37"/>
   <polygon points="17 33 9 29 9 37"/>
   <rect x="31" y="19" width="26" height="32" rx="10"/>
   <rect x="29"
          y="17"
          width="26"
          height="32"
          class="terminal"
          rx="10"/>
   <text class="terminal" x="39" y="37">(</text>
   <a xmlns:xlink="http://www.w3.org/1999/xlink"
       xlink:href="#_type"
       xlink:title="_type">
      <rect x="117" y="19" width="56" height="32"/>
      <rect x="115" y="17" width="56" height="32" class="nonterminal"/>
      <text class="nonterminal" x="125" y="37">_type</text>
   </a>
   <rect x="193" y="19" width="24" height="32" rx="10"/>
   <rect x="191"
          y="17"
          width="24"
          height="32"
          class="terminal"
          rx="10"/>
   <text class="terminal" x="201" y="37">,</text>
   <a xmlns:xlink="http://www.w3.org/1999/xlink"
       xlink:href="#_type"
       xlink:title="_type">
      <rect x="297" y="51" width="56" height="32"/>
      <rect x="295" y="49" width="56" height="32" class="nonterminal"/>
      <text class="nonterminal" x="305" y="69">_type</text>
   </a>
   <rect x="393" y="19" width="26" height="32" rx="10"/>
   <rect x="391"
          y="17"
          width="26"
          height="32"
          class="terminal"
          rx="10"/>
   <text class="terminal" x="401" y="37">)</text>
   <path class="line"
          d="m17 33 h2 m0 0 h10 m26 0 h10 m40 0 h10 m56 0 h10 m0 0 h10 m24 0 h10 m-140 0 l20 0 m-1 0 q-9 0 -9 -10 l0 -12 q0 -10 10 -10 m120 32 l20 0 m-20 0 q10 0 10 -10 l0 -12 q0 -10 -10 -10 m-120 0 h10 m0 0 h110 m-160 32 h20 m160 0 h20 m-200 0 q10 0 10 10 m180 0 q0 -10 10 -10 m-190 10 v14 m180 0 v-14 m-180 14 q0 10 10 10 m160 0 q10 0 10 -10 m-170 10 h10 m0 0 h150 m40 -34 h10 m0 0 h66 m-96 0 h20 m76 0 h20 m-116 0 q10 0 10 10 m96 0 q0 -10 10 -10 m-106 10 v12 m96 0 v-12 m-96 12 q0 10 10 10 m76 0 q10 0 10 -10 m-86 10 h10 m56 0 h10 m20 -32 h10 m26 0 h10 m3 0 h-3"/>
   <polygon points="437 33 445 29 445 37"/>
   <polygon points="437 33 429 29 429 37"/>
</svg>
