<?xml version="1.0" encoding="UTF-8"?>
<svg xmlns="http://www.w3.org/2000/svg" width="375" height="115">
   <defs>
      <style type="text/css">
    @namespace "http://www.w3.org/2000/svg";
    .line                 {fill: none; stroke: #332900; stroke-width: 1;}
    .bold-line            {stroke: #141000; shape-rendering: crispEdges; stroke-width: 2;}
    .thin-line            {stroke: #1F1800; shape-rendering: crispEdges}
    .filled               {fill: #332900; stroke: none;}
    text.terminal         {font-family: Verdana, Sans-serif;
                            font-size: 12px;
                            fill: #141000;
                            font-weight: bold;
                          }
    text.nonterminal      {font-family: Verdana, Sans-serif;
                            font-size: 12px;
                            fill: #1A1400;
                            font-weight: normal;
                          }
    text.regexp           {font-family: Verdana, Sans-serif;
                            font-size: 12px;
                            fill: #1F1800;
                            font-weight: normal;
                          }
    rect, circle, polygon {fill: #332900; stroke: #332900;}
    rect.terminal         {fill: #FFDB4D; stroke: #332900; stroke-width: 1;}
    rect.nonterminal      {fill: #FFEC9E; stroke: #332900; stroke-width: 1;}
    rect.text             {fill: none; stroke: none;}
    polygon.regexp        {fill: #FFF4C7; stroke: #332900; stroke-width: 1;}
  </style>
   </defs>
   <polygon points="9 51 1 47 1 55"/>
   <polygon points="17 51 9 47 9 55"/>
   <a xmlns:xlink="http://www.w3.org/1999/xlink"
       xlink:href="#attribute"
       xlink:title="attribute">
      <rect x="51" y="3" width="74" height="32"/>
      <rect x="49" y="1" width="74" height="32" class="nonterminal"/>
      <text class="nonterminal" x="59" y="21">attribute</text>
   </a>
   <a xmlns:xlink="http://www.w3.org/1999/xlink"
       xlink:href="#qualified_name"
       xlink:title="qualified_name">
      <rect x="185" y="37" width="118" height="32"/>
      <rect x="183" y="35" width="118" height="32" class="nonterminal"/>
      <text class="nonterminal" x="193" y="55">qualified_name</text>
   </a>
   <a xmlns:xlink="http://www.w3.org/1999/xlink"
       xlink:href="#_literal_expression"
       xlink:title="_literal_expression">
      <rect x="185" y="81" width="142" height="32"/>
      <rect x="183" y="79" width="142" height="32" class="nonterminal"/>
      <text class="nonterminal" x="193" y="99">_literal_expression</text>
   </a>
   <path class="line"
          d="m17 51 h2 m20 0 h10 m0 0 h84 m-114 0 l20 0 m-1 0 q-9 0 -9 -10 l0 -14 q0 -10 10 -10 m94 34 l20 0 m-20 0 q10 0 10 -10 l0 -14 q0 -10 -10 -10 m-94 0 h10 m74 0 h10 m40 34 h10 m118 0 h10 m0 0 h24 m-182 0 h20 m162 0 h20 m-202 0 q10 0 10 10 m182 0 q0 -10 10 -10 m-192 10 v24 m182 0 v-24 m-182 24 q0 10 10 10 m162 0 q10 0 10 -10 m-172 10 h10 m142 0 h10 m23 -44 h-3"/>
   <polygon points="365 51 373 47 373 55"/>
   <polygon points="365 51 357 47 357 55"/>
</svg>
