<?xml version="1.0" encoding="UTF-8"?>
<svg xmlns="http://www.w3.org/2000/svg" width="579" height="85">
   <defs>
      <style type="text/css">
    @namespace "http://www.w3.org/2000/svg";
    .line                 {fill: none; stroke: #332900; stroke-width: 1;}
    .bold-line            {stroke: #141000; shape-rendering: crispEdges; stroke-width: 2;}
    .thin-line            {stroke: #1F1800; shape-rendering: crispEdges}
    .filled               {fill: #332900; stroke: none;}
    text.terminal         {font-family: Verdana, Sans-serif;
                            font-size: 12px;
                            fill: #141000;
                            font-weight: bold;
                          }
    text.nonterminal      {font-family: Verdana, Sans-serif;
                            font-size: 12px;
                            fill: #1A1400;
                            font-weight: normal;
                          }
    text.regexp           {font-family: Verdana, Sans-serif;
                            font-size: 12px;
                            fill: #1F1800;
                            font-weight: normal;
                          }
    rect, circle, polygon {fill: #332900; stroke: #332900;}
    rect.terminal         {fill: #FFDB4D; stroke: #332900; stroke-width: 1;}
    rect.nonterminal      {fill: #FFEC9E; stroke: #332900; stroke-width: 1;}
    rect.text             {fill: none; stroke: none;}
    polygon.regexp        {fill: #FFF4C7; stroke: #332900; stroke-width: 1;}
  </style>
   </defs>
   <polygon points="9 33 1 29 1 37"/>
   <polygon points="17 33 9 29 9 37"/>
   <rect x="31" y="19" width="30" height="32" rx="10"/>
   <rect x="29"
          y="17"
          width="30"
          height="32"
          class="terminal"
          rx="10"/>
   <text class="terminal" x="39" y="37">&lt;</text>
   <a xmlns:xlink="http://www.w3.org/1999/xlink"
       xlink:href="#type_argument"
       xlink:title="type_argument">
      <rect x="121" y="19" width="118" height="32"/>
      <rect x="119" y="17" width="118" height="32" class="nonterminal"/>
      <text class="nonterminal" x="129" y="37">type_argument</text>
   </a>
   <rect x="259" y="19" width="24" height="32" rx="10"/>
   <rect x="257"
          y="17"
          width="24"
          height="32"
          class="terminal"
          rx="10"/>
   <text class="terminal" x="267" y="37">,</text>
   <a xmlns:xlink="http://www.w3.org/1999/xlink"
       xlink:href="#type_argument"
       xlink:title="type_argument">
      <rect x="363" y="51" width="118" height="32"/>
      <rect x="361" y="49" width="118" height="32" class="nonterminal"/>
      <text class="nonterminal" x="371" y="69">type_argument</text>
   </a>
   <rect x="521" y="19" width="30" height="32" rx="10"/>
   <rect x="519"
          y="17"
          width="30"
          height="32"
          class="terminal"
          rx="10"/>
   <text class="terminal" x="529" y="37">&gt;</text>
   <path class="line"
          d="m17 33 h2 m0 0 h10 m30 0 h10 m40 0 h10 m118 0 h10 m0 0 h10 m24 0 h10 m-202 0 l20 0 m-1 0 q-9 0 -9 -10 l0 -12 q0 -10 10 -10 m182 32 l20 0 m-20 0 q10 0 10 -10 l0 -12 q0 -10 -10 -10 m-182 0 h10 m0 0 h172 m-222 32 h20 m222 0 h20 m-262 0 q10 0 10 10 m242 0 q0 -10 10 -10 m-252 10 v14 m242 0 v-14 m-242 14 q0 10 10 10 m222 0 q10 0 10 -10 m-232 10 h10 m0 0 h212 m40 -34 h10 m0 0 h128 m-158 0 h20 m138 0 h20 m-178 0 q10 0 10 10 m158 0 q0 -10 10 -10 m-168 10 v12 m158 0 v-12 m-158 12 q0 10 10 10 m138 0 q10 0 10 -10 m-148 10 h10 m118 0 h10 m20 -32 h10 m30 0 h10 m3 0 h-3"/>
   <polygon points="569 33 577 29 577 37"/>
   <polygon points="569 33 561 29 561 37"/>
</svg>
