<?xml version="1.0" encoding="UTF-8"?>
<svg xmlns="http://www.w3.org/2000/svg" width="413" height="113">
   <defs>
      <style type="text/css">
    @namespace "http://www.w3.org/2000/svg";
    .line                 {fill: none; stroke: #332900; stroke-width: 1;}
    .bold-line            {stroke: #141000; shape-rendering: crispEdges; stroke-width: 2;}
    .thin-line            {stroke: #1F1800; shape-rendering: crispEdges}
    .filled               {fill: #332900; stroke: none;}
    text.terminal         {font-family: Verdana, Sans-serif;
                            font-size: 12px;
                            fill: #141000;
                            font-weight: bold;
                          }
    text.nonterminal      {font-family: Verdana, Sans-serif;
                            font-size: 12px;
                            fill: #1A1400;
                            font-weight: normal;
                          }
    text.regexp           {font-family: Verdana, Sans-serif;
                            font-size: 12px;
                            fill: #1F1800;
                            font-weight: normal;
                          }
    rect, circle, polygon {fill: #332900; stroke: #332900;}
    rect.terminal         {fill: #FFDB4D; stroke: #332900; stroke-width: 1;}
    rect.nonterminal      {fill: #FFEC9E; stroke: #332900; stroke-width: 1;}
    rect.text             {fill: none; stroke: none;}
    polygon.regexp        {fill: #FFF4C7; stroke: #332900; stroke-width: 1;}
  </style>
   </defs>
   <polygon points="9 61 1 57 1 65"/>
   <polygon points="17 61 9 57 9 65"/>
   <rect x="31" y="47" width="30" height="32" rx="10"/>
   <rect x="29"
          y="45"
          width="30"
          height="32"
          class="terminal"
          rx="10"/>
   <text class="terminal" x="39" y="65">&lt;</text>
   <a xmlns:xlink="http://www.w3.org/1999/xlink"
       xlink:href="#_type_parameter"
       xlink:title="_type_parameter">
      <rect x="101" y="47" width="130" height="32"/>
      <rect x="99" y="45" width="130" height="32" class="nonterminal"/>
      <text class="nonterminal" x="109" y="65">_type_parameter</text>
   </a>
   <rect x="101" y="3" width="24" height="32" rx="10"/>
   <rect x="99"
          y="1"
          width="24"
          height="32"
          class="terminal"
          rx="10"/>
   <text class="terminal" x="109" y="21">,</text>
   <rect x="291" y="79" width="24" height="32" rx="10"/>
   <rect x="289"
          y="77"
          width="24"
          height="32"
          class="terminal"
          rx="10"/>
   <text class="terminal" x="299" y="97">,</text>
   <rect x="355" y="47" width="30" height="32" rx="10"/>
   <rect x="353"
          y="45"
          width="30"
          height="32"
          class="terminal"
          rx="10"/>
   <text class="terminal" x="363" y="65">&gt;</text>
   <path class="line"
          d="m17 61 h2 m0 0 h10 m30 0 h10 m20 0 h10 m130 0 h10 m-170 0 l20 0 m-1 0 q-9 0 -9 -10 l0 -24 q0 -10 10 -10 m150 44 l20 0 m-20 0 q10 0 10 -10 l0 -24 q0 -10 -10 -10 m-150 0 h10 m24 0 h10 m0 0 h106 m40 44 h10 m0 0 h34 m-64 0 h20 m44 0 h20 m-84 0 q10 0 10 10 m64 0 q0 -10 10 -10 m-74 10 v12 m64 0 v-12 m-64 12 q0 10 10 10 m44 0 q10 0 10 -10 m-54 10 h10 m24 0 h10 m20 -32 h10 m30 0 h10 m3 0 h-3"/>
   <polygon points="403 61 411 57 411 65"/>
   <polygon points="403 61 395 57 395 65"/>
</svg>
