<?xml version="1.0" encoding="UTF-8"?>
<svg xmlns="http://www.w3.org/2000/svg" width="679" height="103">
   <defs>
      <style type="text/css">
    @namespace "http://www.w3.org/2000/svg";
    .line                 {fill: none; stroke: #332900; stroke-width: 1;}
    .bold-line            {stroke: #141000; shape-rendering: crispEdges; stroke-width: 2;}
    .thin-line            {stroke: #1F1800; shape-rendering: crispEdges}
    .filled               {fill: #332900; stroke: none;}
    text.terminal         {font-family: Verdana, Sans-serif;
                            font-size: 12px;
                            fill: #141000;
                            font-weight: bold;
                          }
    text.nonterminal      {font-family: Verdana, Sans-serif;
                            font-size: 12px;
                            fill: #1A1400;
                            font-weight: normal;
                          }
    text.regexp           {font-family: Verdana, Sans-serif;
                            font-size: 12px;
                            fill: #1F1800;
                            font-weight: normal;
                          }
    rect, circle, polygon {fill: #332900; stroke: #332900;}
    rect.terminal         {fill: #FFDB4D; stroke: #332900; stroke-width: 1;}
    rect.nonterminal      {fill: #FFEC9E; stroke: #332900; stroke-width: 1;}
    rect.text             {fill: none; stroke: none;}
    polygon.regexp        {fill: #FFF4C7; stroke: #332900; stroke-width: 1;}
  </style>
   </defs>
   <polygon points="9 51 1 47 1 55"/>
   <polygon points="17 51 9 47 9 55"/>
   <a xmlns:xlink="http://www.w3.org/1999/xlink"
       xlink:href="#attribute"
       xlink:title="attribute">
      <rect x="51" y="3" width="74" height="32"/>
      <rect x="49" y="1" width="74" height="32" class="nonterminal"/>
      <text class="nonterminal" x="59" y="21">attribute</text>
   </a>
   <rect x="165" y="37" width="50" height="32" rx="10"/>
   <rect x="163"
          y="35"
          width="50"
          height="32"
          class="terminal"
          rx="10"/>
   <text class="terminal" x="173" y="55">type</text>
   <a xmlns:xlink="http://www.w3.org/1999/xlink"
       xlink:href="#name"
       xlink:title="name">
      <rect x="235" y="37" width="56" height="32"/>
      <rect x="233" y="35" width="56" height="32" class="nonterminal"/>
      <text class="nonterminal" x="243" y="55">name</text>
   </a>
   <a xmlns:xlink="http://www.w3.org/1999/xlink"
       xlink:href="#type_parameters"
       xlink:title="type_parameters">
      <rect x="331" y="69" width="130" height="32"/>
      <rect x="329" y="67" width="130" height="32" class="nonterminal"/>
      <text class="nonterminal" x="339" y="87">type_parameters</text>
   </a>
   <rect x="501" y="37" width="30" height="32" rx="10"/>
   <rect x="499"
          y="35"
          width="30"
          height="32"
          class="terminal"
          rx="10"/>
   <text class="terminal" x="509" y="55">=</text>
   <a xmlns:xlink="http://www.w3.org/1999/xlink"
       xlink:href="#_type"
       xlink:title="_type">
      <rect x="551" y="37" width="56" height="32"/>
      <rect x="549" y="35" width="56" height="32" class="nonterminal"/>
      <text class="nonterminal" x="559" y="55">_type</text>
   </a>
   <rect x="627" y="37" width="24" height="32" rx="10"/>
   <rect x="625"
          y="35"
          width="24"
          height="32"
          class="terminal"
          rx="10"/>
   <text class="terminal" x="635" y="55">;</text>
   <path class="line"
          d="m17 51 h2 m20 0 h10 m0 0 h84 m-114 0 l20 0 m-1 0 q-9 0 -9 -10 l0 -14 q0 -10 10 -10 m94 34 l20 0 m-20 0 q10 0 10 -10 l0 -14 q0 -10 -10 -10 m-94 0 h10 m74 0 h10 m20 34 h10 m50 0 h10 m0 0 h10 m56 0 h10 m20 0 h10 m0 0 h140 m-170 0 h20 m150 0 h20 m-190 0 q10 0 10 10 m170 0 q0 -10 10 -10 m-180 10 v12 m170 0 v-12 m-170 12 q0 10 10 10 m150 0 q10 0 10 -10 m-160 10 h10 m130 0 h10 m20 -32 h10 m30 0 h10 m0 0 h10 m56 0 h10 m0 0 h10 m24 0 h10 m3 0 h-3"/>
   <polygon points="669 51 677 47 677 55"/>
   <polygon points="669 51 661 47 661 55"/>
</svg>
